<?xml version="1.0" encoding="utf-8"?>
<!-- Generator: Adobe Illustrator 19.0.0, SVG Export Plug-In . SVG Version: 6.00 Build 0)  -->
<svg version="1.1" id="图层_1" xmlns="http://www.w3.org/2000/svg" xmlns:xlink="http://www.w3.org/1999/xlink" x="0px" y="0px"
	 viewBox="180 -118.8 1214 1016" style="enable-background:new 180 -118.8 1214 1016;" xml:space="preserve">
<style type="text/css">
	.st0{fill:none;stroke:#000000;}
</style>
<path id="Anhui" class="st0" d="M1076.9,447.8c-0.9,1.6-4.6,2.6-7.2,5.9l-6-5.6c-2.7-2.5-6.6-1.9-7.7,0.4c-0.4,1-0.2,4.6-0.4,6.1
	c-0.7,5.6-2.1,5.1-2.9,7.7c-0.6,1.8,0.3,3.5,0,4.8c-0.3,1.8-3.4,4.1-5.1,4.6c-1,0.3-2.3,0.2-3.4,0.2c0.4,1.5,0.8,3.3,2.1,4.3
	c1.2,0.9,3.3,1.1,4.3,2.2c1.1,1.2,1.2,4.4,1.2,6l5.3,0.8c3,0.4,5.3-0.2,8.1,1.6c1.8,1.1,1.9,2.4,2.3,4.3c0.6,3.1,1.7,9.1,0,11.9
	c-1,1.6-2.7,1.4-4.2,2.2c-2.4,1.3-4.8,5.2-4.5,8c0.8,7.3,16.4,5,11.8,13.4c-0.5,1-1.4,2-2.1,2.9l3.6,6.2l1.3,4.3l2.6,4.3l2.5,7.2
	l5.5-1.4l3.8-4.4l5.6-0.5c0,8.2-0.6,4.4-2.4,10.1c2.7,0.8,5.5,0.6,7.2-2.1c1.2-1.9,0.2-4.9,4.8-4.6c3.1,0.2,3,2.4,5.3,3.7l8.1,1.9
	l7.2,2.3c2.5,0.2,5.1-2.5,6.7-4.1c2.4-2.4,6.5-9.4,6.5-13c0-1.6-1.1-4.8-1.7-6.2c5-1.7,5.4-1.5,10.1-4.3l-3.4-5.8l4.8-1
	c1.1-7.5,1.4-3.5,1.4-13l-8.6-2.1l-8.6,2.6c0.3-3.6,1.4-7.2-1.3-10.3c-2.5-2.9-8.4-3.5-8.8-7.9c-0.4-4.5,2-4.9,3-7.7l1.3-8.6
	c1.5,0.4,3.8,1.5,5.3,1.1c3.1-0.8,4-3.1,3-5.9c-0.3-0.9-0.6-1.7-1.4-2.3c-5.8-4.4-9.4,4.3-13.7,4c-3.3-0.2-4.2-3.8-5.7-6
	c-1.7-2.3-3.6-2-4.9-4.9c-1.2-2.5,0.2-3.9,0.8-6.2c0.4-1.6,0.3-4.5,0.3-6.2c-1.4,0-3.1,0.1-4.3-0.5c-1.8-0.9-4.2-4.1-6.7-5.2
	c-1.7-0.7-3-0.1-4.8,0c-1.8-0.1-3.6-0.6-5.3-1.4c-4-1.9-3.3-3.2-5.1-5.1c-0.9-1-4.2-3-5.5-3.7c-2.5-1.4-6.5-4.2-9-2
	c-1.1,0.9-1.2,1.7-1,3c0.7,5.9,6.3,4.2,8.8,9.6C1076.6,444.8,1077.5,446.5,1076.9,447.8L1076.9,447.8z"/>
<path id="Beijing" class="st0" d="M1039.2,293.9c-1,1.9-0.7,7.6-0.7,10l7.7,1.3h4.8c1.8,0.3,3.2,1.9,4.8,1.4
	c1.4-0.4,2.7-2.6,3.9-3.6c2.2-1.8,4.1-0.5,4.5-2.6c0.3-1.5-1.6-5.3-2.1-7.1l7.7-4.6c0.8-0.6,2-1.6,2.2-2.6c0.5-1.7-1.8-2.3-2.2-4.3
	c-0.6-2.7,1.5-5.2,2.9-7.2c-3.1,0-7.3,0.5-10.1-1c-5-2.7-3.6-5.3-6.7-5c-4.2,0.4-2.9,3.7-5.4,6.3c-1.5,1.5-5.2,3.6-6.1,5.2
	c-0.8,1.3-0.5,5.8-0.5,7.5c0,1.2,0.1,2.6-0.8,3.5C1041.9,292.2,1040.1,292.1,1039.2,293.9L1039.2,293.9z"/>
<path id="Chongqing" class="st0" d="M926,511.3l-13.4-7.2c-0.9,0.9-2.3,2.2-2.8,3.4c-1.2,2.9,1.1,7.3,3.3,9.1
	c-3.2,3.2-4.9,4.9-6.8,9.1l-1.9,4.8c-1.1,3.7-0.6,6-4.3,8.2c-2.2,1.3-2.4,1.1-4.8,0.9c-5.3-0.5-3.7,4.3-4.7,7.2
	c-0.5,1.5-3.3,6-4.3,7.7c-1.1,2-1.9,3.8-4.1,4.9c-4.9,2.5-9.7-4.1-11.5-4.8c-1.6-0.6-2.8,0.8-4.1,0.6c-1.3-0.2-2.7-2-5-3
	c-4-1.7-4.4-0.4-6.9,2.2c-1,1-2,1.7-3.1,2.5c1.1,2.2,2.4,2.7,2.3,4.3c-0.3,3.1-4.7,6.8-6.2,9.6c-0.7,1.2-1.7,3-1.2,4.3
	c0.6,1.7,4.6,5,6.1,6.4c3.4,3.1,3,4.7,4.2,5.6c1.1,0.8,2.6,0.1,4.5,1c4.1,2,5.6,5.6,7.2,9.5l4.3-3.4l2.9,5.3
	c4.4-4.5,3.2-10.8,9.6-10.6l4.3,1c0.4-1.9,1.1-7.7,2.5-8.6c2.8-1.8,5.6,1.8,8,2.2c1.4,0.3,5-0.6,6.7-0.8h4.3l1.4,11
	c1.2-0.1,3.6-0.6,4.5,0.3c0.8,0.8,0.9,2.9,1.1,4c0.5,2.7,2.1,5,4.9,5.6c4.3,0.8,7.7-2.5,8.4-6.6l-0.8-9.6c-0.1-7.5,0.5-4.7-2.4-11.5
	l-4.8,1c0-1.4,0.2-5.4-0.5-6.4c-0.7-1-2.7-1.6-3.8-2.5c-1.7-1.4-2.2-3-2.9-5l-3.8,3.4c0.7-3.1,3.1-10,2.1-13
	c-0.4-1.4-2.2-3.5-3.1-4.8l4.8-2.2h4.3l3.4-2.3l3.3,0.7l4.8-0.9l7.7-5.5l3.2-2l3.6,1.2c2.3-6.8,3.8-10.6-2.1-16.2
	c-1.5-1.4-2.6-1.7-4.2-2.8c-1.2-0.8-3.1-2.6-4.3-3.1c-1.9-0.6-4,0.7-5.7,0C929,514.9,928,512.7,926,511.3L926,511.3z"/>
<path id="Fujian" class="st0" d="M1123.1,594.8c-1.4,1-2.1,2.8-2.6,4.4l-4.8-3.8c-4,2.7-4.2,3.4-7.3,6.7c-0.8,0.9-2.7,2.3-2.8,3.4
	c-0.2,1.6,1.7,3,2.3,4.8c0.5,1.7-0.4,5.2-1.2,6.7c-2.4,4.7-6.4,3.6-9,9.1c-0.7,1.5-1.1,2.7-0.6,4.3c0.6,1.9,2,3.2,1.3,5.3
	c-0.5,1.3-2,2.8-2.5,4.8c-0.5,2,0.2,4.3-0.6,6.2c-0.6,1.4-3.3,4.5-4.9,8.6c-0.9,2.3-2.6,13.9-2.8,16.8c-0.1,1-0.1,2.2,0.7,2.9
	c0.9,0.7,4.5,0.8,6.4,1.4c4.6,1.6,6.3,4.4,8.2,4.9c1.7,0.4,4-1,5.4,0.2c0.7,0.6,1.5,3,2.1,4l2.9,4.8c1.6,3.8,1.7,7.6,4.6,11
	c0.8,0.9,2.1,2.3,3.3,2.7c1.4,0.5,5.3-0.6,6-2c0.4-0.9,0.3-4.8,0.3-6l2.4,3.4l2.1-4.3c2.5-3.4,5.9-5.8,5.5-10.5
	c-0.1-0.8-0.1-1.4-0.7-2c-0.6-0.6-1.8-1.1-2.6-1.4l5.8-2.1l6.7-3.5l3.5-1.2l1.5-4.3l3.1-5.8l-0.4-5.8c3.8,1.6,3.6,1.7,7.2-0.5
	l-2.9-4.3c5.1-1.9,3.9-3.8,10.1-3.8c-0.1-1.6-0.5-3.2-0.3-4.8c0.2-1.8,1.3-4.1,1.1-5.8c-0.2-2.4-2.1-3.8-1.7-6.2
	c0.8-4.8,1.2-2.5-1.5-7.2l2.9-1l-3.8-1v-5.3c3.6,1.3,5,1,8.6,0l-1.4,4.8c1.6-1.2,4.2-3.6,4.3-5.8c0-1.3-0.9-2.5-0.6-3.8
	c0.2-1,1.4-2.3,2-3.4c0.7-1.4,1.2-3.3,1.6-4.8l-4.3-1h4.8l-3.4-4.8c-1.9,0.5-3.6,1.3-5.3,2.4c-0.9,0.6-2.3,1.9-3.4,1.9
	c-2.6,0-5.3-5.6-6.2-7.7c-2.4,1.8-4.9,5.7-7.7,6.4c-1.7,0.5-7.1-0.8-8.2-2.2c-0.9-1.2-0.7-2.8-1.7-4.7c-0.9-1.6-2.6-2.9-2.8-4.8
	c-0.1-1,0.5-3.7,0.7-4.8l-2.9-1.8c-1.2-0.6-2.1-0.6-3.4-0.6c-5.2,0-2.2,3.4-7.7,8.1C1125.8,594.4,1124.6,593.7,1123.1,594.8
	L1123.1,594.8z"/>
<path id="Gansu" class="st0" d="M617.7,280.9l-6-1.5l-1.3,9.6l-3.1,6.2l1.4,10.1l-0.9,7.7c6.4,1.8,6.9-1.6,12.5-1.7l7.2,1.4
	c2.2,0.1,3.9-1.2,5.8-1.1c1.2,0.1,4.9,1.8,6.2,2.3l9.1,3.1c2.9,1.3,6.2,3,8.6,5.2l8.2,8.9c2.8,2.5,5.2,2.5,7.7,4.2
	c3.9,2.7,3.2,4.3,9.1,5.9L685,325c0.5-1.3,2.8-4,4.2-4.2c0.9-0.1,3.3,1.1,4.1,1.6c4.1,2.5,6.9,7.1,12,6.9c1.3,0,2-0.1,2.9-1.1
	c0.6-0.7,1-1.5,1.4-2.3c1.2,0.6,3.6,2.1,4.8,2.1c1.4,0,2.3-1,3.4-1.3c1.6-0.4,3.5,0.9,4.8,1.9c4.8,3.6,5.6,6.4,8.8,10.3
	c2.9,3.5,6.7,6.4,10.9,8.2l1.4-5.3l3.5,3.6l4,2.9l2.8,3.7l7.5,4.6l3.8,3.2l4.8,3.4l6.2,5.1l2.4-4.3c1,6.2,2.6,5.3,5.2,7.8
	c3.4,3.2,2,3.3,7.3,5.7l-1.9,4.3l3,5.3l2.2,8.6l2.8,5.3l-0.3,4.8l0.9,6.2l-4.8,1c0.2,0.9,0.7,2.9,0.5,3.7c-0.6,2.3-7,3.5-8.2,5.6
	c-0.8,1.5,0.6,3-0.5,6.1c-1.4,3.8-3.9,4.2-5.6,5.9c-2.8,2.8-1.3,5.2-6.4,6.1c2.6,1.5,7.2,4.7,8.2,7.6c0.4,1.3-0.7,2.1-1.5,3
	c-1.8,1.8-3.5,4.1-6.2,4.3c-3.4,0.2-5.7-1.6-8.6-2.9c-4.4-1.9-6.4-2.3-11-2.3c0,1.6,0.3,4.8,0.8,6.2c1.2,3.4,5.9,8.9,9.3,10.3
	c1,0.3,1.4,0.1,2.4,0c2.8,0.1,3.3,1.4,5.3,3.1c3.6,3.2,4.5,2.7,4.8,8.2l4.1-0.3l1.8-2.6l2.6-5.8l-4.2-9.6l5.3-3.5
	c3.7-2,5.1-0.7,8.6-5.6c1.2,1.3,5.9,7.4,6.6,8.6c1,2,0.6,4.1,1.9,5.3c1.6,1.6,7.4,3.1,9.8,3.3c1.6,0.1,3.3-0.2,4.8,0.5
	c4.4,1.9,6.2,7.4,7.7,11.6c0.5,1.2,1.6,3.5,1.2,4.8c-0.3,1.1-1.8,2.2-2.6,2.9c3.5,4.3,14.2,9.1,19.7,6.5c2.8-1.3,3.7-4.8,5.8-6
	c1.7-1,5.5,0.3,7.6-3.4c0.7-1.3,1.1-4.3,0.6-5.7c-0.4-1.1-1.3-2.2-1.4-3.4c-0.1-1.2,1.6-4.4,2.2-5.8c4.4,1.6,7.9,0,12.5,0l-2.2-5.3
	l0.2-4.8l0.5-5.7l4.3-3.9c-2.2-2.5-4.9-4.4-8.2-5.3c1.8-2.5,3.8-4.4,4.2-7.7l-0.4-5.3l3.8-0.4c5.2-0.4,5.9,2.5,8.6,3.1
	c2.9,0.7,10.4-0.2,11.7-3.4c0.5-1.3-0.3-4.3-0.7-5.6c6.6,1.3,3.2,0.7,9.1,0h3.8c1.7-0.1,4-0.2,4.8-2c2.2-5.1-1.4-8.8-0.9-13.9
	c0.3-2.6,1.6-3.5,2.2-5.3c0.5-1.4-0.3-5.3-1.1-6.6c-0.8-1.3-2.3-1.1-3.5-1.6l-3.8-2.2l-3.3-1c-2.6-1.1-2.6-3.6-4.5-4.6
	c-0.9-0.5-6.3-1.2-8.8-3.4c-2.4-2-3.5-5.7-8.8-6c-3.8-0.2-6,1.3-6.6,5.3c-0.2,1.5,0.1,3.4-0.4,4.8c-0.5,1.3-1.4,1.8-1.9,3
	c-0.4,1.1-0.3,4.5,0,5.7c0.8,3.7,3.5,3.6,5.4,5.1c3.2,2.7,4.1,7,1,10.1c-0.6,0.6-2.1,1.8-2.8,2.2c-1.6,1-3,0.8-4.8,0.8l0.4,5.3
	l-1.3,5.8c-4.3-4.3-3.8-3.8-9.6-3.8l2.4-1.9c-4.1-1.9-11.9-5.3-13.7-9.6c-0.9-2.1,0.5-3.4,0.7-6.2c0.1-1.5-0.4-5.3-1-6.7
	c-0.6-1.4-1.8-2.9-2-4.3c-0.4-1.8,0.6-3.6,0-5.8c-1-4.4-3.2-5.4-6-8.2c-1-1.1-1.8-2.4-3.1-3.1l-4.2-1.2l2.4-3.4
	c-4.8,0-11.4-2-15.4-4.7c-2.3-1.5-3.7-4.3-5.4-5.4c-1.3-0.8-3.2-0.9-4.7-0.9c-0.9-6.6-1.7-6.6,2.9-8.6l-0.6-4.3l6.2-7.2l3.7-7.2
	l2.7-4.8l-3.4-9.1c-2.4,0.1-9.5,1.6-11.5,2.8c-2.1,1.3-4.8,4.9-7.2,5.4c-1.7,0.4-4.9-1.4-6.7-1.8c-1.4-0.3-7.8-0.3-9.1,0
	c-1.1,0.2-2.3,0.8-3.4,1.3c0.4,1.1,1.4,3.8,1.3,4.8c-0.1,1.2-1,2-1.8,2.9c-0.9,0.9-2.1,2.2-3.3,2.6c-2.7,0.9-7-1.7-9.1-3.2
	c-2.9-2-7.4-4.2-8.8-7.5c-0.9-2.2,0.5-4.2-0.3-5.5c-0.5-0.8-2-1.3-2.8-1.7c-1.3-0.7-4.1-2.4-5.2-3.3c-2.4-1.9-2.1-3.2-3.3-4.6
	c-1.1-1.3-2.3-1.1-4-2.3c-1.4-1-2.9-2.9-4.3-3.6c-1.4-0.7-4.6-0.5-6.2-0.5c1.2-1.6,2.7-3.8,4.3-5c2-1.5,3.6-1.5,5.4-3.7l3.7-5.7
	c0.5-0.8,1.3-1.9,1.5-2.9c0.3-1.4-0.7-5.3-1.8-6.3c-0.8-0.7-3.8-1.6-5-2c-0.9-0.3-1.9-0.6-2.9-0.7c-2.5-0.1-12.3,2.3-14.4,3.6
	c-2,1.3-3.4,4-5,4.9c-1,0.6-2.5,0.5-3.7,0.5h-3.8c0.7-1.5,2.7-6.7,2.4-8.2c-0.3-1.3-1.8-2.8-2.7-3.8l-5.6-6.7
	c-0.9-1-2.4-2.5-2.5-3.8c-0.3-2.2,2.8-4.9,2.4-8.2l-5.7-17.3l-3.5-9.9c-0.9-1.4-2.6-1.1-4-1.1c-4.8,0-11.3-0.9-15.2,2.4
	c-1.8,1.6-1.9,5.9-2.1,8.2c-0.4,4.9-0.6,7.8-5.2,10.8c-2.8,1.7-7-0.1-10.1,0c-4.7,0.3-11.9,3.4-15.4,6.5L631,269.8
	c-5.1,5.3-3.4,8.1-9.6,10.3C620.4,280.5,618.7,280.9,617.7,280.9L617.7,280.9z"/>
<path id="Guangdong" class="st0" d="M1022.6,670.4c-1.6,1-3.5,1.2-5.3,1.2c2.5,5.2,3.4,4.1,4.3,10.6c-1.7,0-5.2,0.3-6.4-0.8
	c-1.2-1.1-1.2-3-2.8-3.7c-1.1-0.5-8.3-0.3-10-0.3c0,1.8,0.2,4.7-0.4,6.2c-0.6,1.6-2,3.1-2.2,4.8l0.5,6.7c-0.3,1.9-1.9,3.9-2.2,5.8
	c-0.3,1.9,0.8,3.3,0,5.3c-1.2,2.7-4.2,4.4-5.3,5.9c-1,1.3-0.8,2.8-1.5,4.2c-0.9,2-2.6,2.9-3.5,4.8c-1.8,3.7,0,6.9,0.4,10.6
	c0.3,2.5-1.3,4.1-3,5.7c-2.8,2.8-10.3,6.8-11.4,9.6c-0.6,1.5,0.5,3.7,0.9,5.3l-6.7,3l-3.1,2l-0.3,5.1c-1.4,0-4.6-0.1-5.8,0.3
	c-2.2,0.8-5.4,5.5-7.2,7.4l4.3,6.2l-3.4,0.5l-1.5,5.8c-0.2,2,0.9,4.3,1.5,6.2l1.3,4.8c0.8,1.7,4.4,6.4,5.9,7.4
	c1.2,0.8,4.8,1.4,6.2,1.1c3.7-0.7,5-5.1,3.8-6.8c-0.7-1-3.6-2.2-4.8-2.7l1-4.8c-5.1-2.1-4.1-1.8-3.8-6.7c3.5,3.3,3.6,2.9,8.2,2.9
	l-2.9-4.8l0.5-5.3l0.5,4.3l12-5.7l9.6-2.4l9.1-3.4l-2.4-3.8h3.8v3.8c1.7-1.5,4.5-5.1,6.7-5.2c1.1-0.1,3.3,0.9,4.3,1.4l2.4-4.8
	l5.8,2.9l2.4-4.8l4.8,1l1-6.2l4.8,3.4c2.3-3.5,2.5-4.6,6.7-5.8l-0.5-6.2V735l4.8-1c0.6,1.2,1.5,3.2,2.6,4c2.5,2,8.9-1.3,11.8-1.6
	c1.8-0.2,3.5,0.5,5.3,0.9l-1.4-4.3l4.2-0.4l4.5,3.3c0.5-1.1,1.1-2.4,1.9-3.3c2.8-3.5,9.2-1.2,11-1.7c1.9-0.5,1.6-2.4,4-3.1l7.2-0.2
	c1.8-0.3,3.8-1.4,5.3-2.4l7.4-4.7c2-2.1-1-4.9,4.1-5.3c-1.1-1.7-2.5-2.1-4.3-2.9l4.6-1l3.6-4.2l5.2-2.5l-5.1-6.7l-3-8.6l-2.4-3.8
	l-1.9-3.6l-5.4-0.5l-6.7-4.2l-9.1-1.8c-2.1,5.1-1.2,4.1,0,9.1c-6.2-0.5-6.5-2.8-9.1-3.1l-8.6,2c-2.9,0.8-2.7,2.4-4.5,3.4
	c-1.5,0.9-2.9,0-5.6,1.1c-1.2,0.5-3,1.7-4.3,1.4c-2.9-0.6-3.9-3.9-3.2-6.4c1.3-4.5,4.7-7.3,8.5-9.6c-0.2-0.9-0.4-2.5-0.8-3.3
	c-0.5-1-1.1-1.5-2.1-1.9c-4.1-2-6.4,1.5-10.1,1.4c-1.8-0.1-3.4-1.4-4.8-2.4c-1.3,1.1-2.8,3-4.3,3.6c-1.9,0.7-5.9-0.4-7.7-1.2
	c-1-0.5-2.8-1.7-3.8-1.7C1025,668,1023.8,669.6,1022.6,670.4L1022.6,670.4z"/>
<path id="Guangxi" class="st0" d="M943.9,661.6c-1,0-3.3-1.8-4.3-2.4l-2.4,8.2c-1.5,0-4.8-0.2-6,0.5c-1.4,0.8-2.3,2.8-4.1,3.9
	l-8.1,2.6c-2.8,0.7-4.9-1.2-7.5,1.2c-1.5,1.4-1.1,3.9-1.1,5.8l-5.2,1.3c-1.4,0.2-8.8-2.4-10.1-3.3c-2.8-1.9-2.8-5.8-7.3-6
	c-1,0-1.6,0.2-2.4,0.9c-3.4,2.8,0.1,5.1-2.1,7c-0.7,0.6-3.6,1.7-4.6,2.1l-7.7,3.3c-1.3,0.5-4.5,1.1-5.3,2.1
	c-0.7,0.9-0.5,4.2-0.5,5.4c-3.7,0-10.5-0.7-13.9-1.9c-2-0.7-2.7-1.7-4.3-2.5c-1.4-0.7-3.3-1-4.8-1.4c-0.6,1.1-1.5,3.3-2.2,4.1
	c-1.1,1.2-5.8,3.7-7.4,3.5c-1.1-0.1-3.2-1.4-4.3-1.9l0.5,5.5l3.8,1.3l9.6,1.8c0.1,1.3,0.4,4.1,1,5.1c1.1,1.6,4.3,2.2,6.2,2.5
	l3.8,0.5c2,0.1,7.7-0.2,9.1,0.3c1.1,0.4,2,1.3,2.8,2.1c0.6,0.6,1.2,1.3,1.4,2.1c0.3,1.6-2.1,8.2-4.7,9.2c-1.1,0.4-3.1-0.1-4.3-0.3
	l-6.2,8.2c1.7,1.1,7.7,5.6,9.1,5.8l5.3-0.4l6.7,1.7c1.6,0.1,4.2-0.3,5.4,0.8c1,0.9,2,3.9,1.3,5.2c-0.7,1.2-2.5,2.2-2.5,4.1l1.3,4.3
	c0.8,2.8,1.1,5.2,1.1,8.2c1.3-0.1,3.2-0.4,4.3,0c1.9,0.8,4.6,4.7,7.7,6.3c1.3,0.7,8.9,2.1,10.6,2.1l3.4-0.4c2.3,0.1,4.6,1.9,6.7,2.1
	c3.1,0.4,7.5-1.8,9-4.5c0.6-1.1,0.9-3.9,1.1-5.2c3.5,4.1,3,4,8.2,6.2l-1-4.3l3.8,5.3l3.8-1l1,5.8c2.2-0.6,6.3-1.1,7.7-3.1
	c0.7-1,1.1-3.7,1.4-5.1l4.3,3.4l7.7-7.7l5.3-0.5l0.5-4.7l9.6-5.4c-0.3-1-1-3-0.9-3.8c0.2-1.5,2.2-3.3,3.3-4.2c3.4-3,8-4.7,10.6-8.7
	c2.3-3.8-2.2-8.8,0-13.4c0.9-1.7,2.4-2.7,3.3-4.3c1-1.8,0.6-3.4,2.1-5.2c1.2-1.5,3.9-2.9,5-5.4c1.3-2.8-0.9-3.8,0.7-7.2
	c0.6-1.2,1.3-2.4,1.6-3.8c0.4-2.1,0-6.6-2.3-7.4c-3.2-1.1-4.1,0.6-6.7,1.8c-1.4,0.7-3.2,1-4.8,1.3l-1-11c-7.5,2.5-4.1,1.5-10.1,5.3
	l0.4-6.2l5.8-8.2l0.8-5.3l2.7-4.8c-1,0.1-2.4,0.4-3.3,0c-2.4-1.3-3-8-3.5-10.5c-6.8,0-5.8,1.4-9.1,1.8c-1.6,0.1-3.2-0.7-4.8,0
	c-2.6,1.4-3.2,5-7.7,6.1c-2.7,0.6-3.6-2.5-5.8-2.2C948.8,656.5,946.1,661.5,943.9,661.6L943.9,661.6z"/>
<path id="Guizhou" class="st0" d="M896.4,581.8l-4.8-0.4l-1.4,9.1c-1.6-0.3-3.9-1.3-5.3-1.2c-4.8,0.4-4.4,3.1-6.1,6.5l-2.6,4.3
	l-3.8-5.3c-0.9,0.7-2.9,2.4-3.8,2.5c-2,0.3-5-3.1-7.2-3.2c-1.5-0.1-4.9,2.4-6.2,3.4c-0.5,0.4-1.1,0.8-1.4,1.4
	c-0.6,1.1-0.1,4.2,0.8,5.1l2.9,1.6c1.2,0.9,1.9,2.3,3.4,2.7c1.1,0.3,4-0.4,5.3-0.6c0.3,1.8,1.4,4.7,1.1,6.2c-1.2,5-4.1,3.8-7.8,4.7
	c-1.5,0.4-3.3,1.3-4.8,1.1c-1.6-0.2-3.4-1.6-4.8-1.9c-3.4-0.7-4.5,2.6-6.1,4.7c-1.3,1.8-5.9,6-7.9,7c-3.2,1.5-6.9-2.4-11-3.6
	c-3.3,5.2-3.8,1.8-7.7,2.1c-3.5,0.3-7.9,4-8.6,7.5c-0.4,2.2,1.5,3,2.3,4.8c1.2,2.5-1.4,5.1,2,7c2.5,1.3,3.9-1,6.2-1.4
	c1.3-0.2,7.9,1,9.1,1.6c0.8,0.5,1.4,1.1,1.9,1.9c2.5,3.5,1,3.3-1.2,8.2c-1.6,3.4-3.3,8.3-3.8,12c-0.5,4.2,1.8,3,3.8,5
	c1.4,1.5,3.1,5.4,3.2,7.4c0.2,4.4-2.2,7.6-3.8,11.5c1.2,0.8,2.9,2,4.3,2.1c1.2,0.1,2.3-0.5,3.4-1c3.9-1.9,4.6-2.6,5.8-6.8
	c1.5,0.4,3.4,0.7,4.8,1.4c1.6,0.8,2.4,1.8,4.3,2.5c3.4,1.2,10.2,1.9,13.9,1.9V688c5.8-0.9,8.7-2.9,13.9-4.9c3-1.2,5.1-1.1,4.9-4.7
	c-0.2-3.4,2.7-6.3,6.1-4.8c3.1,1.4,3.1,3.4,5,5c1.5,1.3,9,3.9,10.9,3.5c1-0.2,3.2-0.9,3.8-1.7c0.6-0.8,0.4-2.1,0.6-3
	c0.4-1.5,1.8-2.7,3.2-3.3c2.2-1,3.5,0.4,6.2-0.4l8.1-2.6c1.6-1,2.5-3,4-3.8c1.8-1,3.9,0.1,5.2-1.2c0.5-0.6,0.9-1.9,1.2-2.6
	c1.7-5,1.3-5.9,1.3-11l-4.3-1c1.9-4.8,2-4,0-8.6c1.3-0.4,3.5-0.9,4.3-2.1c1.8-2.5,0.7-7.7-2.4-8.7c-1.1-0.4-2.7,0.5-3.8,0.8
	c-2,0.7-4.1,1-6.2,1.4c0.8-2.8,3.2-7.4,5.1-9.6c1.9-2.3,3.6-2.5,4.3-5.3c1-4.1-0.9-4.8-1.9-8.1c-0.5-1.6-0.2-3.5-0.4-5.3l-1.3-7.7
	c-1.6,1.6-2.2,3.9-4.3,5c-7.2,4-10.4-3.3-10.5-9.4h-4.2l-1.4-2.8l-1.2-7.7h-4.3l-5.8,0.7L896.4,581.8L896.4,581.8z"/>
<path id="Hainan" class="st0" d="M949.8,809.3c-1.3,0.6-2.1,2.7-2.6,4l-5.3-1.4c-0.3,1-0.6,2.5-1,3.4c-1,1.9-7.5,7.2-9.5,8.9
	c-1,0.9-3.7,3-4.3,4.1c-0.6,1.2-0.1,3.3,0,4.7l1.5,11.9c0.6,1.6,2.8,2.2,4.2,2.8c4.4,1.9,8.1,4,13,4.1h6.2c1.7-0.2,3.7-2.1,5.3-2.9
	l5.3-2.4c1.8-1.1,8.1-7.4,9.2-9.1l4.4-12c1.4-2.5,2.1-3.7,4.1-5.8c1-1,3.1-2.6,3.5-3.9c0.7-2.3-2-8.2-5-8.9l-8.6,0.6
	c-2.2-0.1-2.8-0.5-5.3,0c-3.1,0.5-6.9,2.2-10.1,1.9C953.5,809.2,951.1,808.6,949.8,809.3L949.8,809.3z"/>
<path id="Hebei" class="st0" d="M1012.2,248.2c-2.5,4.9-2.5,6.7-2.5,12l-4.3,0.5v8.6c0.1,4.1,2.1,5.4,4.4,8.6l3.7,7.1
	c0.9,1.2,3.9,3.2,5.4,4.4l-4.3,2.4c-3.6,2.1-5,2.4-6.2,6.7l8.1,2.6c2.3,1.3,3.4,6.5,3.5,9c0.1,4.3,0.8,8.7-3.8,11
	c-2.1,1.1-4-0.3-6.1,1.6c-3,2.7-0.8,4.7-1.6,7.1c-1.1,3-4.2,3.4-3.8,8.6c0.4,5.2,4.9,4.9,6.8,8.6l3.1,6.2c0.7,1.1,2.6,4.2,2.9,5.3
	c0.4,1.7-1.7,5.4-2.4,7.2l-1.4,3.8c-0.8,2.9-1.1,8.1-3.1,10.5c-0.9,1.1-1.9,1.5-3.1,2c0.5,2.4,2,6.4,3.9,8c2.3,1.9,4.6,0.6,7.2,1.4
	l3.4,1.4l4.3,0.6l4.3,1.8c1.3,0.3,2.5-0.1,3.8,0c4.1-0.1,4.6,1.7,6.7-3.1l3.4,2.9c0.7-0.6,1.6-1.1,2-1.9c1.6-3.1-4.5-5.7-2.6-10.1
	c1.6-3.7,5-6.3,7-9.6c2-3.4,1.1-6,4.3-11c2-3.1,5-3.1,7.4-5.1c1.9-1.6,3.7-6.9,7.8-9.5l7.2-1.9c1.1-0.4,2.8-1,3.8-1.7
	c2-1.4,5.3-6.2,5.1-8.7c-0.2-2.2-2.9-8.1-5.1-8.8c-1.7-0.5-6,1.1-8,1.1c-1.8,0-5.5-2.6-6.8-3.9c-3-3.3,0.1-8.5,0-12.4
	c-0.2-2.5-1.7-3.8-2.4-9.1c-4.3,0-5.8,1.3-7.7,5.3l-4.8-2.1h-5.3l-8.2-1.3c0-2.5-0.3-7.9,0.7-10.1c1.1-2.4,3.2-2.3,4.1-3.6
	c0.6-0.8,0.5-2.2,0.5-3.1c0-1.7-0.3-5.8,0.5-7.2c0.9-1.8,4.5-3.7,6.1-5.3c2.7-2.6,1.2-6.2,5.4-6.8c3.7-0.5,2.2,2.7,7.2,5.1
	c2.5,1.2,8.1,0.7,11,0.7c-0.9,0.9-1.8,1.8-2.5,2.9c-0.5,0.8-0.7,1.5-0.8,2.4c-1.1,5.7,3.2,5.3,6.7,7.2c1.6,0.9,3.4,2.6,4.8,3.8
	l-3.4,0.5c0,5.1,0.2,5.8,2.9,10.1l4.3-1c0.4,5,1.4,8.8,6.7,10.1c0.8,0.2,2.5,0.7,3.4,0.6c2-0.2,2.6-1.9,5.3-2.7
	c2.5-0.8,4.9-0.4,7.1-2.4c4-3.7,1.7-5.6,2.8-9.5c1.3-4.6,5-8.7,9.3-10.6c-0.6-1.5-1.7-4-2.7-5.2c-2.3-2.9-3.8-1.8-5.5-7.9
	c-1.2,0.1-3.2,0.2-4.3,0c-1.1-0.4-1.8-0.9-2.9-1.3c-2.5-1.1-6.1-2.3-6.1-5.8c0-1.2,1.5-3.1,2-4.3c0.9-1.9,1.8-5.1,2.2-7.2
	c-6,0.5-4.9-0.4-8.2-0.3c-2.4,0-4.8,1.5-7.6-0.9c-1.4-1.2-3.5-4.2-3.5-6c0-1.9,1.4-3.8,1-6.2c-1.1-5.5-5.1-4.7-7.8-8.2
	c-2-2.6-1.5-5.8-5.6-6.8c-2.7-0.7-5.1,0.8-7.2,2.3l-4.5,3c-1,1-2.9,5.4-3.5,6.9c-0.6,1.5-1.4,5-2.4,6c-1,0.9-2.4,0.7-3.6,1
	c-2,0.6-3.4,2.1-5,2.1c-1.8,0-3.6-1.8-6-0.7c-1.7,0.7-5.8,4.2-7,5.6c-0.9,1.1-2.2,3.6-3.4,4c-0.7,0.4-1.8,0.2-2.6,0
	c-4.9-1.6-4.9-7.7-5.8-9.3c-0.7-1.3-2.3-2.7-3.8-2.3C1014.5,244.4,1013,246.7,1012.2,248.2L1012.2,248.2z"/>
<path id="Heilongjiang" class="st0" d="M1117.1-57.5c-6.6,2.4-15.5,3.6-21.1,7.1c1.1,2.2,2.3,2.5,3.1,4.3c2.7,6.1-1.9,10-5,14.4
	c1.9,0.7,4,1.2,5.7,2.4c2,1.4,2.4,3.3,5.3,2.8c2.2-0.3,3.1-3.4,3.9-5.2c1.4,0.5,3.1,1.2,4.3,1.9c3.6,2.2,2.2,2.5,6.7,1.9
	c-0.4,0.9-1.1,2.4-1.2,3.4c-0.4,3,3.1,9.2,4.4,12c0.9,2,1.6,4.6,3.5,6c1.4,1,3.6,0.8,5.3,0.8c5-0.1,5.2-2.3,8.2-3.2
	c1.8-0.6,2.7,0.3,4.8,0c2.1-0.2,6.8-2.1,8.6-3.3c3.1-2,5-6.5,7.7-6.9c1.1-0.2,3.4,0.7,4.3,1.3c1,0.6,8.7,7.2,9.5,8.2
	c3.2,3.6,0.6,6,0,8.2c-0.5,2,0.7,3.1,0,5.3l-3.5,8.2c-0.8,1.5-2.1,3.1-2.2,4.8c-0.4,4.2,3.2,15.1,3.4,18.2c0.3,3.8-0.6,6.2-4.8,5.8
	l-1.4,12v15.4c-3.7-3.9-3.7-3.8-5.3-8.6c-4.5,2.4-5.8,6.3-8.3,10.6c-2.4,4.1-3.6,3.6-5.2,5.8c-1.3,1.8-0.9,3-3.4,5.7
	c-3.3,3.6-6.9,4.2-7.4,9.6c-0.5,5.5,2.3,5.6,5.5,8.7c2.3,2.2,2.8,3,4.3,5.7c4.1-0.8,4.5-0.9,6.2-4.8l3.8,1c-0.8,3.2-1.5,4.4-3.8,6.7
	c-0.9,0.9-3.2,2.7-3.4,3.9c-0.2,1.4,2.6,4.9,3.4,6.2l12.5-3.8l3,5.3c1.1,2.6,1.9,7,3.9,8.9c0.8,0.8,2.3,1.6,3.2,2.3
	c2.3,1.5,4.3,3.5,7.2,2.1c1.6-0.8,2.5-2.3,3.4-3.7c0.9,0.9,2.3,2.3,3.4,2.9c3.7,1.8,5.2-2.6,11-3.8c0.3,1.2,0.8,3.1,1.6,4.1
	c1.5,1.9,6.8,2.5,9,1.7c2.2-0.8,3-2.4,5.8-2.7c1-0.1,1.9,0,2.9,0.3c6.5,1.8,5.8,8.2,8.2,10.8c2.1,2.3,6.8,0.2,8.9,2
	c1.7,1.5,1.9,5.5,5,8.3c0.4,0.4,0.9,0.8,1.4,1c5.5,2.8,6.2-6.3,6.2-9.6c1.7,0.1,3.8,0.1,4.9,1.6c1.2,1.5,0.5,3.3,2.1,5.6l5.8,6.7
	c1.8,2.5,3,6.3,6.8,4.4c1.4-0.7,1.6-2.5,2.2-3.9c0.9-1.8,2.1-3.7,3.7-5c3.1-2.5,4.7-2.6,6.7-6.5l3.8,2.9l1-2.4l9.6,5.4l4.8,2.5
	l7.7-1.3l-3-8.2l-0.7-5.8l-3.2-6.7c-1.3-2.7-2.1-4.2-3.7-6.7c-0.6-0.9-1.8-2.4-1.8-3.6c0.1-3.8,4.1-4.8,6.1-7.1
	c2.6-3,2.5-5.6,4.4-7.3c1.8-1.6,3.9-1.7,6.1-1.7h14.9c-0.1-4.2-1-5.4,0-10.1c0.6-2.5,1.9-2.9,2.6-4.8c0.6-1.6,1.2-9.1,1.2-11
	c0-6,2-2.9,1.9-10.1l-1.9-12.5c-0.1-4,1.6-4.8,1.4-6.7c-0.2-1.7-2-2.8-1.7-4.5c0.5-2.3,2.6-3.3,3.7-4.8c0.8-1,1.5-4.3,1.7-5.6
	c0.8-4.4-3.3-7.2-4.4-10.6c-1.1-3.3,1.1-6.9,2.6-9.6l-5.3,2.5c-2.9,1.2-4.6,1.2-7.2,3.4c-2.7,2.2-3.7,4.9-6.7,7.4
	c-2.9,2.4-5.3,1.5-7.4,3.6l-2.4,3.2l-3.4,3.4c-4.2,4.8-1.6,4.2-8.3,7.1c-2.8,1.2-3.5,1.9-6.7,2.6l-5.8,0.7c-1.9,0.6-3.4,2.3-5.2,1.2
	c-2.2-1.3-6.1-6.6-6.9-9.3c-0.6-2.2-0.1-3.3-0.9-4.8c-1-2-4.2-4.2-5.5-6.2c-1-1.6-1.2-3.5-1.2-5.3c-1.7,0.1-3.9,0.7-5.4,0.4
	c-4.3-1-5.9-3.3-9-5.2l-5.8-2.7c-3.5-1.3-3.9,0.9-7.2,0.6c-3.9-0.4-4.9-2.7-7.2-2.9c-2.6-0.2-5.4,1.9-7.7,2.7
	c-2.9,1.1-7.2,0.5-9.5-1.7c-4.5-4.2-3.7-6.1-5.8-10.9c-1.2-2.9-2.4-2.6-3.4-4.4c-0.8-1.3-0.6-3.5-1.5-5.2c-2-3.9-7.3-7.3-10.3-12.5
	c-3-5.3-3.8-9.5-4.7-11c-1.4-2.3-3.6-2.1-5.4-5.3c-1.3-2.4-0.5-4.3-2.3-6.7c-0.9-1.2-4.3-4.5-5.6-5.5c-0.9-0.6-2.4-1.3-3.1-2
	c-1.2-1.4-0.7-3.2-2-4.7c-0.6-0.8-2.2-1.8-3.1-2.4c-1.3-0.9-3.5-2.7-4.8-3.2l-7.2-1.4c-0.6,0.9-1.6,2.8-2.7,3.1
	c-0.8,0.3-4.4-1.1-5.4-1.4l-14.9-5c-1.2-0.2-1.8,0.1-2.9,0.3C1119.2-59.1,1122-59.2,1117.1-57.5L1117.1-57.5z"/>
<path id="Henan" class="st0" d="M1018.8,392c-1.3-0.4-4.7-0.2-6.2-0.2c0,5.8,0.7,14.3-2.7,19.2c-0.8,1.2-4.6,4.6-5.9,5.7
	c-1.5,1.4-3.9,3.2-5.8,4c-5.1,2.2-10.2,0.7-13.4,2.7c-1.4,0.9-2,2.4-3.5,3.2c-1.4,0.8-2.8,0.5-4.7,1.8c-2.2,1.5-3.5,3.8-7.2,5.7
	c-2.9,1.4-4,0.3-6.2,1.3l-4.8,3c-2.8,1.5-6,2.3-9.1,2.8c0,2.1,0.1,6.9,1.2,8.6c0.9,1.3,2.6,2.2,3.6,3.9c1.3,2.1,0.5,4,2,6.7
	c1.9,3.5,4.8,5,5.8,6.4c1.9,2.6-0.7,5.5,2.3,9.5l7,7.7c1.1,1.3,2.6,4.1,3.6,4.8l6.1,1.9l7.2,3.5c1.8,0.5,6,0.2,8.2,0.3l4.8,0.6
	c2.4-0.2,5.5-2.9,8.6-3c2.2-0.1,3.3,2.3,5.4,2.7c1.7,0.4,5.2-1.5,6.7-2.3v4.3c0.1,3.1,2.2,7.8,5.3,9.1c1.4,0.5,2.5-0.3,4.3,0
	l3.8,1.3c1.3,0.2,4.7-0.5,6.2-0.7v5.8l6.2,0.3l6.7-0.9l3.8,2.1c1.1-3.5,1.7-6,4.8-8.4c1.8-1.4,3.3-0.9,4.3-2.3
	c1.6-2.4,0.6-8.6,0-11.4c-0.1-1-0.4-2.9-1-3.6c-1.8-2.5-7.7-2.1-10.6-2.6c-1.3-0.2-3-0.4-3.8-1.6c-0.6-1-0.9-4.4-1-5.6
	c-5.7-1.3-5.2-2-7.7-6.7c3.1,0,8,0,9-3.9c0.3-1.7-0.7-3.2,0-5.2c1.1-2.6,2.9-2.7,3-10.1c0-1.2-0.1-3.1,0.5-4.1
	c1.6-2.5,5-2.5,7.1-0.9l6.3,6l8.2-5.3l-2.7-6.4l-6.2-4.4l-3.1-4.9l-7.1,0.7h-6.7c-0.6-3.7-2.1-7.5-6.2-8.8c-1.3-0.4-6.5-0.2-8.2-0.2
	c0.7-2,2.5-8.1,3.7-9.5c1.6-1.9,3.1-0.8,5.4-4c2.1-2.9,1.8-5.2,3.5-7c2.4-2.5,6.2-2.1,8-7.9c-5,1.1-5,3-7.7,3.1
	c-1.3,0-3-0.4-3.4-1.7v-3.3l-1.9,1.9l-3.8-2.9c-2.3,4.9-3.4,2.7-7.7,3c-4.9,0.3-3-0.6-6.7-1.7l-3.8-0.4
	C1021,393.2,1020.2,392.4,1018.8,392L1018.8,392z"/>
<path id="Hong_Kong" class="st0" d="M1055.2,738.8l2.4,5.8c-4.3-0.6-4.6-0.6-6.7-4.3c-1.3,0.6-3.1,1.3-3.8,2.6
	c-1.4,2.4-0.2,5.1,2.4,5.8l12.5-0.6c0-2.6,0-8.1-3.1-9.2C1058.2,738.4,1056.1,738.8,1055.2,738.8z"/>
<path id="Hubei" class="st0" d="M971.1,483.9c-1.3-1.6-7.3-8-8.9-9.1c-1.3,1.1-3.9,4-5.8,3.4c-1-0.4-2-1.7-3.4-1.9
	c-1.3-0.2-2.2,0.8-4.3,0.8l-3.8-0.4h-5.3c-1.3-0.3-4-1-5.2-0.6c-1.4,0.5-2.2,1.9-2.9,3.1c1.8,0.1,4.1,0.2,5.5,1.6c1,1,1.5,3,2.5,3.9
	c1.2,1.1,2.5,0.5,3.8,1.5c1,0.8,3,4.5,4,6c-1.2,0.5-3.1,1.5-4.3,1.6c-2.1,0.2-3.9-1.4-7.2,1.5c-4.2,3.8-0.4,5.2,0,8.5
	c0.1,1.3-1.2,8.4,0.8,11.5c2.3,3.4,5.7,3.1,10.2,8.7c0.7,0.9,1.5,1.8,2,2.9c1.4,3.6-1,7.9-1.5,11.5l-3.8-1.3l-3.8,2.1l-8.2,5.7
	l-4,0.6l-3.1-0.9l-3.9,2.5h-3.8l-4.3,2.3c0.9,1.3,2.7,3.5,3.1,4.8c0.7,2.4-1.3,8.3-1.6,11l2.9-2.4l2.6,5l4.6,3.3l0.5,5.7
	c4.2-1.1,4.6-0.7,6.7,4.3c2.9-3.7,2.4-7.6,4.5-9.9c2.4-2.8,9.4-7.1,13.2-7c2.1,0,3,1.2,4.8,1.3c1.5,0.1,5.2-1,6.7-1.6
	c-0.5-1.1-1.7-3.2-1.7-4.3c0.4-5.5,9.5-5,13.2-4.2c2.9,0.6,2.9,2.6,4.9,3.4c1.1,0.5,5.6,0.3,7.1,0.3c5.6,0,4.8,2.7,9.1,5.1
	c1,0.5,2.8,1.3,3.8,1.4c2.2,0.2,7.8-1.1,9.5-2.5c1.1-0.9,1.8-2.3,2.5-3.5c0.4,1.5,1.2,6.8,2.6,7.4c0.8,0.3,2.8-0.3,3.6-0.6
	c0.9-0.3,1.5-0.5,2.2-1.2c1.5-1.3,2.5-4.1,4.2-4.5c3.6-0.8,6.4,4.4,6.4,6.4c0,0.9-1.8,4.4-2.3,5.5l8.2,4.3c2-4.6,2-3.3,5.8-5.4
	c2-1.1,2.6-2.4,4.8-3.4l7.7-2.9c1.9-1.1,2.5-2.6,4.3-3.9c1.8-1.2,3.6-1.2,5.2-2.5c1.5-1.2,3-3.7,4.5-4.5c2-1.2,5.4-0.2,7.6,0
	c7.7,0.8,3.2-8.9,1.1-12c-0.7-1.1-1.2-1.7-1.7-2.9c-1.5-3.8-1.2-5.8-4.7-9.1c3-3.8,2.9-3.9,2.9-8.6c-2-0.5-7-2.4-8.6-3.6
	c-2.3-1.6-4.9-5-7.7-5.8c-2.1-0.6-6.3,0.9-8.6,1.1l-5.3-0.4V507c-1.6,0.2-4.4,0.8-5.8,0.6l-3.8-1.2c-1.5-0.2-2.9,0.4-4.3-0.2
	c-2.1-1.1-5.2-5.4-5.7-7.7v-4.8c-1.5,0.4-5.1,2-6.1,1.8c-1.9-0.4-2.9-3-6-2.7c-3.2,0.3-6.1,2.6-8.2,2.8l-5.3-0.4
	c-1.8,0-5.6,0.2-7.2-0.3l-7.2-3.5c-1.8-0.7-5.5-1.4-6.6-2.2C973.4,488,972.2,485.4,971.1,483.9L971.1,483.9z"/>
<path id="Hunan" class="st0" d="M958.8,559.8c0.2,1.3,1.6,3.3,2.4,4.3l-7.2,1.4c-1.7,0-2.4-0.8-3.8-1.1c-1.4-0.3-3.9,0.1-5.3,0.5
	c-1.8,0.6-3.3,1.6-4.8,2.7c-1.3,0.9-3.5,2.3-4.5,3.4c-1.1,1.3-1.5,3.8-2.1,5.5c-1.5,4.3-2.1,3.1-2.1,8.2c0,8.3,1,12.2,2.5,20.2
	l0.5,5.8c0.4,2.6,2.4,4.7,2.3,6.9c-0.2,3.8-2.4,4.2-4.5,6.7c-1.8,2.1-4.3,6.9-5.1,9.5l5.8-1.2c0.9-0.3,2.7-1.2,3.6-0.9
	c2.2,0.6,5.5,5.7,2.8,9.2c-0.8,1.1-2.8,1.8-4,2.5c2.2,5.1,1.4,3,0,8.2l4.3,0.5c0,3.2-0.7,6.1,1.9,8.3c1,0.9,2,1.6,3.3,0.9
	c1.9-0.9,4.2-4.9,5.8-5.1c2-0.3,2.9,2.8,6.2,1.9c4.3-1.2,5.2-4.8,7.7-6.1c1.6-0.6,2.7,0.2,4.8,0c3.7-0.7,2.1-1.8,9.1-1.9
	c0.2,2.2,0.9,9.8,3.1,10.7c0.8,0.4,3.1,0,4.1,0l-3.2,4.7l-0.8,5.3l-5.8,8.2l-0.4,6.2c6-3.8,2.6-2.8,10.1-5.3l1,11
	c1.6-0.3,3.4-0.6,4.8-1.3c1.1-0.6,2.6-1.8,3.6-2c1.6-0.4,3.1,0.9,4.6-0.4c2.8-2.4,2.3-7,2.3-10.3c1.8,0,9.3-0.2,10.5,0.3
	c1.7,0.7,1.7,2.7,2.8,3.7c1.2,1.1,4.3,0.8,5.9,0.8c-0.7-5.3-1.4-5.8-4.3-10.1c1.6-0.4,4.4-0.7,5.8-1.4c1.7-0.9,2.7-2.7,4-2.6
	c0.7,0,2.4,1.2,3.2,1.6c2.5,1.2,7.7,2.5,9.9,0.4c2.8-2.6,0.9-5.8,1.2-9c0.4-3.5,2.8-7.8,4.2-11c-5.4-0.9-3.2-3.6-4.1-7.7
	c-1-4.9-3.2-5.8-3.7-7.7c-0.4-1.8,0.9-3.3,0-6.2c-0.5-1.3-1.6-4-2.5-5c-2.4-2.5-5.7-2.8-5.7-7.5c0-1.3,0.8-3,1.3-4.3
	c0.6-1.9,1.3-5.2,2.5-6.5l3-2.3c0.8-0.7,4.4-6,4.8-7c0.8-2.2-1-3.6-1.6-5.8c-0.5-1.7,0-3.1-0.6-4.8c-0.4-1-1.4-2.4-2-3.4
	c-3.7-5.5-5.6-6.3-11.5-9.1c2-3.5,3.4-4.8,1.3-8.6c-0.5-0.9-0.9-1.7-1.9-2.3c-0.8-0.5-2.8-0.9-3.7-1.1c-3.3,4.9-4.4,6.6-10.6,7.2
	l-1.4-7.2c-0.8,1-1.5,2.1-2.5,2.9c-3.4,2.4-9.2,3.3-12.9,1.2c-4.7-2.6-3.2-5.1-9.6-5.1c-1.7,0-5.8,0.3-7.2-0.5c-1.9-1-2-2.7-4.8-3.1
	c-2.8-0.7-7.4-1-10.1,0C960.2,556.5,958.5,558,958.8,559.8L958.8,559.8z"/>
<path id="Jiangsu" class="st0" d="M1112.6,424.7c-1.1,1.3-1.2,3.8-1.2,5.5l-8.6-3.8l-7.2,4.4l-5.3-1.6l-4.8,1.1
	c-0.9-2.3-3.5-7.2-5.8-8.1c-3.9-1.5-9.7,1-9,5.7c0.1,0.7,0.2,1.1,0.7,1.6l9.3,5.5c4.9,3.2,2.4,4.5,7.2,6.6c5.1,2.2,7.4,0.1,10.1,1.5
	c2.3,1.1,4.5,4.1,6.2,4.9c1.3,0.7,3.8,0.5,5.3,0.5c0,1.7,0.1,4.6-0.3,6.2c-0.5,2.2-1.9,3.9-1.2,6.2c0.9,2.9,2.9,2.7,4.5,4.5
	c1.5,1.6,1.8,4.1,3.8,5.6c0.7,0.6,1.8,1.1,2.8,1c2.5-0.2,7.1-4.1,8.2-6.3c1.7,0.8,4.8,1.7,5.8,3c1.9,2.4,1.8,4.9-0.6,6.8
	c-0.7,0.6-1.5,1.2-2.4,1.3c-1.1,0.2-3.2-0.7-4.3-1l-1.3,7.7c-1.1,3.1-3.2,2.6-3,8.2c0.2,4.3,5.1,4.7,8,7.5c3,2.8,2.5,6.3,2,9.8
	l8.2-2l9.1,2.2l6.2-1l4.8,3.7l9.1,2.9c0.8-1.2,1.9-3.2,3-4.1c1.4-1.2,3.1-1.2,4.1-2.8c2.2-3.5,0.6-8.8,6.4-12.8
	c-2.6-3.7-4.5-4.5-8.2-6.7c2.4-1.1,5.4-2.9,8.2-2.7c4.8,0.4,5.1,3.4,11,1.7c-0.9-2.1-2.2-5-4-6.5c-1.5-1.3-2.4-0.8-4.7-2.7l-6.7-6.4
	c-2.4-1.7-5.5-1.5-7.9-4.6c-1.4-1.8-0.8-3.3-2.4-6.2l-6-9.1l-2.6-6.2l-3.5-5.8c-1.9-3.7-3.5-9.3-6.7-12.3c-1.4-1.3-4.1-1.7-6-2.3
	c-4.3-1.4-10-2.9-13.4-5.9c-1.1-0.9-3.7-3.8-3.8-5.2c0-0.7,1-3.3,1.3-4.1c-3.2,0.9-6.8,2.1-8.2,5.3c-1.2,2.6-0.8,4.6-1.8,6.1
	C1116,423.1,1113.8,423.5,1112.6,424.7L1112.6,424.7z"/>
<path id="Jiangxi" class="st0" d="M1040.4,639c1.6,3.4,1.3,6,1.3,9.6l3.8,1c-2.7,4.7-5,9.3-4,14.9c0.4,2.6,1.9,4.3,4.5,4.9
	c3.8,0.8,6.5-3.3,11-1.3c1,0.4,1.7,0.9,2.3,1.8c2,3.5-1,4.6-3.2,6.4c-2.3,1.9-5.5,7.2-4.5,10.3c0.2,0.7,0.7,1.3,1.2,1.8
	c2.3,2.3,4.2,0.3,6.6-0.7c2.5-1,3.7-0.3,5.2-1.1c1.3-0.7,1.9-2,3.4-2.9l8.6-2.4c1.9-0.2,3.2,1.1,4.8,1.8c1.5,0.7,3.1,0.9,4.8,1.1
	c-0.3-1.3-1.2-3.7-1.1-4.8c0.1-1.7,1.2-2.6,1.5-5.3c0.5-4,1.7-15,2.9-18.2c1.4-3.9,4.6-7.7,5-9.1c0.6-1.8-0.1-4.3,0.6-6.2
	c0.7-2.1,2.7-3.9,2.8-5.8c0.1-2.4-2.3-3.9-1.6-6.7c1.5-6.2,7.5-6.6,9.6-10.6c0.8-1.6,1.9-6,1.3-7.7c-0.5-1.5-2.3-2.8-2-4.3
	c0.2-1.1,1.8-2.2,2.5-3l2.7-3.1c1.8-1.9,2.8-2.2,4.6-4.5l5.3,3.4c0.8-1.4,1.5-3,2.9-3.9c1.3-0.8,2.7-0.7,4.3-1.7
	c2.5-1.7,5.1-6.8,4.8-9.8c-0.3-3.5-1.5-9.7-3.8-12.4c-1.8-2.1-4.4-2.3-5.4-4c-1.1-2.1,1.5-7,0.4-8.7c-0.7-1-4.5-2.2-5.7-2.6l-8.6-2
	c-2.3-1-2.8-2.6-4.4-3.4c-1.3-0.7-3.8-0.5-5.2-0.5c-0.5,3.4-0.7,4.5-3.8,6.3c-0.7,0.4-1.3,0.8-2.1,0.8l-3.2-0.4
	c1.8-5.7,2.4-1.9,2.4-10.1c-1.7,0-4.2-0.3-5.6,0.8c-1.6,1.2-2.1,3.6-4.5,4.6l-4.3,1.1c-1.7,0.7-2.7,1.9-4.3,2.1
	c-1.1,0.2-6.5-0.9-8.5,0c-1.6,0.6-3.1,3.1-4.5,4.3c-2,1.7-3.8,1.5-5.7,2.9c-1.9,1.3-2.1,2.7-4.8,4.1l-7.7,2.9l-3.8,2.8
	c-2,1.3-4.2,1.5-5,4.2c-0.7,2.2,1.8,4.9,3,6.7c3.5,5.3,1.2,4.6,2.5,8.2c0.5,1.4,1.8,2.7,1.3,4.3c-0.3,1-4.4,7.1-5.2,7.9l-2.8,2
	c-0.8,0.9-1.2,2.8-1.5,4c-0.6,2-2.2,5.3-2,7.2c0.5,5,4.7,4.9,6.7,8.6c0.7,1.3,1.8,3.8,1.9,5.3c0.1,1.6-0.6,3.5-0.2,4.8
	C1038.2,636.1,1039.5,637,1040.4,639L1040.4,639z"/>
<path id="Jilin" class="st0" d="M1151.5,121.9c-1,1.1-2.4,1.8-3.7,2.5c1.3,4.8,0.7,3.8-0.5,8.2c-4.6-1.7-5.3-4.9-8.6-0.5
	c-0.8-0.6-1.5-1.2-2.4-1.5c-3-0.9-6,2-7.2,4.4c5.1,0.1,4,1.5,6.9,4.8c1.7,1.9,4,3.2,4.9,5.8c0.8,2.5-1.1,4.4-0.9,6.7
	c0.1,1.4,1.6,4.2,2.2,5.8c0.7,2,0.3,3.1,0.6,4.3c0.5,1.8,1.9,2.2,2.7,3.5c0.6,1.1,0.5,2.9,0.5,4.2c2.4,0,4.6,0.3,6.7-1.2
	c2.2-1.7,3.3-4.9,6.8-4.6c4.6,0.4,5.9,7.3,7.8,10.2c1.3,2,3.2,3.7,3.3,6.2c0.1,1.8-1.3,3.2-2,4.8c4.9,2.6,5.6,3.8,10.1-0.5
	c0.7,1.5,1.7,3.4,3.4,4c1.3,0.5,2.4-0.2,3.6,0.6c1.1,0.8,2.2,3.3,3,4.5c1.2,1.8,2.5,2.7,4.3,3.8l1.4-5.3c5.3,1.5,4.6,3.6,7.8,7.2
	c4.7,5.4,3.2,4.4,6.6,9.1c1,1.4,3.5,4.4,4,5.8c0.7,2.1-0.4,3.9,0,5.8c0.4,1.6,1.8,2.8,2.6,4.3l1.3,2.8c1,1.8,2.9,2.8,4.3,4.4
	c3.4,4,4,6.8,4.1,12c6.1-2.7,5.8-5,7.9-10.6l4.1-11l3.4-6.2c6.8,2,5,3.4,8.6,4.9c2.3,0.9,8.2,1.3,10.6,0.6l3.4-1.4l4.3-1.2
	c-0.5-1.5-1.3-4.5-2-5.8c-1.4-2.4-3.9-4.4-2.6-7.6c0.9-2,4.1-1.9,6-2.2c2.9-0.6,6.4-2.3,8.6-4.3c3.2-2.9,1-4.5,2.7-7
	c2.3-3.4,4.7-1.5,6.3-3.5c1.5-2,1.1-6,1.1-8.5c0-4.3,0.4-4.3,1-8.2c1.6,0.7,3.8,1.5,5.1,2.6c2.9,2.6,3.3,6.2,7.9,4.6v-1l-2.9-1
	c1.6-1.6,3.3-3.4,5.3-4.5c1.7-1,3.5-1,4.8-2.7c1.7-2.7,0.4-6.5,0-9.5v-5.3l-8.1,1l-9.1-5.1l-4.2-1.7l-2.5,2l-1.9-3.4h-1
	c-2.6,4.3-5,4.4-7.5,6.9c-2.2,2.2-3.3,5.4-3.5,8.5l-5.3,1c-2.4-6.6-8.3-11.1-9.7-13.4c-0.8-1.4-1.1-3.7-1.4-5.3l-4.3-0.5l-0.6,4.3
	c-0.2,1.1-0.5,1.8-1,2.9c-3.3,6.4-8.2,0-9.9-3.8c-0.4-0.9-1.1-2.8-1.8-3.4c-1.7-1.3-6.5,0.7-9-2c-2.9-3.3-1.6-9.1-8-10.7
	c-1-0.1-1.9-0.2-2.9,0c-3.9,0.2-4.2,2.6-7.7,3c-2,0.2-6-0.8-7.3-2.4c-0.6-0.7-1.4-2.8-1.8-3.7c-1.4,0.3-2.6,0.5-3.8,1.3
	c-1.7,1.1-3.5,3.2-5.8,2.6c-1.4-0.4-2.8-2-3.8-3c-1.4,1.2-2.8,3.3-4.4,3.8c-2.3,0.8-3.9-0.7-5.7-1.9c-2.2-1.5-4.5-2.4-5.7-4.8
	c-1.4-2.8-2.8-10.3-5.8-11.3c-1.2-0.4-3.5,0.8-4.8,1.2c-1.5,0.5-5.4,1.2-6.5,2C1152.8,119.7,1152.4,121,1151.5,121.9L1151.5,121.9z"
	/>
<path id="Liaoning" class="st0" d="M1184.8,188.7c-4.5,1.2-3.3-0.3-7.2-3.4c-3.6,4.8-0.7,5.4-2.8,10.1c-1.5,3.5-3,2.7-4.8,4.2
	c-1.7,1.5-1.5,3.5-3.6,5.1c-2.8,2.2-8.5,0.3-11.9,0.3c-0.2,1.7-0.4,3.7-2,4.7c-1.1,0.7-2.3,0.4-3.7,1.3c-1.5,1.1-3,3.7-4.4,4.7
	c-1.7,1.2-2.8,0.3-4.7,1.5l-4.8,4.2c-3.7,2.8-8.1,4.7-11.4,8.1c-1.6,1.6-4.8,7.3-5.8,9.5c-0.9-0.9-2.4-2.4-3.1-3.4
	c-0.9-1.4-0.6-2.3-1.9-3.8c-0.8-1-2.1-2-3.2-2.7l-2.4-1.5c-2.1-1.1-4.8-0.2-5,2.3c-0.1,1.3,1.1,2.9,1.2,7.7c-0.1,1.4-0.2,5.1,0,6.2
	c0.6,2.1,2.3,3.1,2.1,4.8c-0.1,1.1-1.7,3.2-2.2,4.3l-3,7.7c-0.8,1.7-2,3.4-1.4,5.3c0.9,3.3,2.8,3.8,5.4,5c1.1,0.5,1.7,0.9,2.9,1.3
	c1.2,0.4,2.6,0.4,3.7,1.2c1.2,0.9,1.4,2.3,2.7,3.9l3,3l4,4.8c3.5-2.2,8.5-5.9,10.4-9.6l1.8-4.8c1-1.9,2.2-2.6,3.1-4.8
	c1-2.5,1.1-4.5,3.5-6.4c1.1-0.9,3.6-2.1,5-2.3c1.8-0.1,3,0.6,5.1,0c1.2-0.5,3.6-2.2,4.6-1.9c1,0.2,2.3,2.2,2.9,3
	c2.2,3,5.1,5.7,5,9.6c-0.1,2.5-4.2,10.5-5.9,12.4c-1.3,1.5-2.7,2-3.7,4c-1.4,2.6-0.4,3.8-0.5,6.2c-0.1,1.8-0.9,3.5-1.4,5.3l8.6-1
	c-0.9,1.2-2,2.4-2.5,3.8c-1.2,3.3,0.1,5.1-4.7,5.3l-1,6.7l3.7-0.5l3.6-3.8l5.9-4.4l3.1-6.6l5.4-4.9l3-3.2l7.7-3.7l1.4-4.6
	c3.6,0,12.8-1.7,15.8-3.4c1.2-0.7,2.4-2.1,3.1-3.3c2.3-3.5,2-8.7,6.2-12.8c1.3-1.3,2.6-1.4,3.8-2.7c1.2-1.3,1.7-3.2,3-4.4
	c1.2-1.1,2.9-1.4,4-2.2c1.6-1.2,4.4-6.5,4.4-8.6c0-3.1-2-8.1-4-10.4l-3-2.6c-1.2-1.2-4.2-5.5-4.7-7.1c-0.8-2,0.3-4.9-0.4-7.2
	c-0.5-1.5-3-4.8-4.1-6.2l-6.7-9.1c-0.9-1.1-2.5-3.6-3.6-4.4c-1.1-0.8-2.4-1.1-3.7-1.4l-2.4,4.8L1184.8,188.7L1184.8,188.7z"/>
<path id="Macau" class="st0" d="M1036,756.6l2.4,1.2c5,1.5,2.8-5.2,2.4-7.5C1037.4,750.7,1036.7,753.7,1036,756.6z"/>
<path id="Nei_Mongol" class="st0" d="M1079.8-37.4c-2.8,4.9-3.8,2.2-3,8.2c2.4-0.3,7.9-1.2,9.8,0.8c1.2,1.2,0.7,4.8,0.8,6.4l0.4,3.4
	c0.3,5.1-1.3,5.6-4,9.1l-3,4.8c-2,3.5-2.4,7.3-3.6,11c-1.1,3.5-1.7,2.8-2.9,8.2c-0.4,1.6-0.6,3.3-1.2,4.8c-1.5,3.6-5,7.1,0.5,9.1
	l-1.7,6.6l-8.8,4.7l-3.5,4.1l-9,7.2l-5.3-0.8l-3.8-0.3l-9.6-3.7l-7,25.4l-4.2,7.7l0.8,7.2l-3.1,9.6c1.4,0.8,5.4,3.5,6.7,3.4
	c1.5-0.2,2.9-2.2,4.3-3.1c1.6-1,2.6-0.6,4.3-1.1c1.9-0.6,2.4-1.5,4.8-1.6c5.5-0.1,6.7,3.3,11,5.2c1-2.3,4.2-8.4,5.9-9.9
	c1.3-1.2,2.1-1,3.7-1.3c3.2-0.6,5.4-1.3,8.6,0.4c2.4,1.2,2.6,3.4,6.3,5.7l6.2,3.6l4.8,3.8c2.5,1.7,3.2,1.2,5.4,4
	c3.1,3.8,3.7,7.5,5.1,12c-4,1.2-5.2,2.8-10.1,2.9c-4.4,0.1-5.1-0.7-7.7-0.9l-8.2,1c-4.1,0.6-7.9,4.7-9.1,5.2
	c-1.5,0.6-2.4-0.3-3.8-0.5c-1.2-0.2-2.7,0.3-3.8,0.5v5.8c-2,0.2-9.6,1.1-11,2c-2,1.4-5.3,7.7-6,10c-0.5,1.9,0,3.3-0.8,4.8
	c-1.1,2.2-3.9,3.9-5.8,5.4c-1.7,1.4-4.1,4.2-5.8,5.2c-1.1,0.6-7.1,1.5-8.6,1.7c-2.4,0.2-3.5-1-5.3,0c-2.1,1.3-3.8,5.3-5.4,7.4
	c-4.2,5.6-4.7,4-8,6.8c-1.2,1-3,3.1-4.3,3.7c-1,0.3-3.6,0-4.8,0c-2,0-9.5-0.7-11-1.4c-2.6-1.3-4-4.2-9.6-4.3c-1.8,0-3.7-0.2-5.2,0.9
	c-1.5,1-2.2,2.8-3,4.4c-2,4-4.9,13.2-2.6,17.3c2,3.5,5.5,5.3,6.8,6.9c1.1,1.6,1.4,4.4,0,6l-5,5c-2.8,1.8-6.2,2.5-9,5.3
	c-3.3,3.4-5.4,8.1-7.4,10.5c-1.4,1.6-6.3,6.6-8.1,7.5c-2,1-3,0.2-5.3,1.4c-2.8,1.4-5.1,3.8-8.2,4.7c-1.6,0.5-4.9,0.3-6.7,0.3
	l-6.2,0.7l-4.3-0.5l-11,1.7c-3,0.2-4.9-0.9-6.7-0.6l-8.2,3.1c-2.3,0.7-3.6,0.2-5.3,0.7l-8.6,4.4l-14.9,7.4c-4.1,2-7.8,4.1-12.5,4.2
	h-5.3v-5.3l-6.7,1.3c-3.9,0.6-10.3-0.1-13.9-1.6l-12-7c-2.4-0.8-7,0-11-2c-2.9-1.5-2.5-4.4-5.3-6.4c-2.2-1.5-5.6-1.8-8.1-2.7
	c-3.3-1.2-4.4-2.4-8.6-3.3c-2.2-0.5-6.3-0.3-8.6-0.3l-4.3,0.3c-1.6,0.1-2.4-0.3-4.3,0c-3.5,0.3-4.5,1.5-9.1,1.1l-4.3-0.8l-9.6-0.8
	l-5.8-1.5l-5.8-0.6l-15.4-3.9l6.6,19.2l2.7,8.6l-2.5,8.6l2.8,3.8l5.6,6.7l2.4,3.4l-1.7,7.7h3.4c5.2,0,4.3-1.8,7.7-4.7
	c2.2-1.9,12-4.4,14.9-4.2c1.2,0.1,3.1,0.8,4.3,1.2c1.2,0.4,2.8,0.8,3.7,1.7c2,1.8,2.5,5.7,1.2,7.9l-4,6.2c-3.3,5.2-6.7,2.6-9.6,9.1
	c1.5,0,3.5-0.2,4.8,0.5c1.6,0.8,3,2.8,4.8,3.9c1.3,0.8,2.9,0.9,4,2.1c1.4,1.5,0.9,3,3.7,5.2l7.8,4.5c1.3,1.6-0.7,3.9,0.6,6.4
	c1.3,2.7,6.3,5.4,8.9,7.2c3.9,2.7,8.3,4.4,12,0.4c0.8-0.9,1.5-1.6,1.6-2.9c0-1.2-1-3.7-1.5-4.8l3.8-1.7c1.5-0.4,7.1-0.4,8.6,0
	c2,0.3,5.4,2.2,7.2,1.9c2.7-0.4,5.4-4.2,7.7-5.6l11-3.3c0.5,2,1.2,3.9,2.2,5.8c0.7,1.3,1.9,2.7,1.5,4.3c-0.2,1-1.8,3.2-2.5,4.3
	c-1.3,2.4-1.9,5-3.7,7.2c-1.6,2-6,5.4-6.4,7.7c-0.2,1.3,0.4,3.1,0.8,4.3c-3.3,1.4-4,1.6-3.4,5.3c0.1,0.9,0.2,1.8,0.9,2.5
	c1,0.9,2.5,0.5,4.3,2c1.5,1.3,2.7,3.5,4.5,4.7c1.3,0.9,6.6,3.4,8.1,3.3c1.4-0.1,2.4-1.1,4.8-1.4c2.7-0.3,5.5-0.2,8.2-1.2l5.3-2.7
	c3.9-1.5,8.3-0.2,9.8-3.9c0.4-1,0.3-3.1,0.3-4.3c0.1-5.3,1.9-4,1.9-10.6c0-6.6,1.2-13.6,5.9-18.7c3.6-3.9,9.8-8.6,13.2-2
	c0.4,0.7,0.8,1.7,1,2.4c0.3,1.6-0.9,4.2-1.5,5.8c-2.5,6.7-2,3.5-3.4,11c-0.2,1.2-0.9,3.5-0.4,4.6c1.5,3.4,7.5,2,10.8,3.4
	c2.4,1.1,3.3,2.9,5.8,4.2l9.1,3.3c2.4,1.2,2.7,3.3,4,4.1c1.3,0.7,4.4-0.3,6.1-0.5h3.7c2-0.7,1.9-4,2.7-5.7c1-1.9,2.7-2.4,4.6-2.9
	c-0.4-1.9-1.4-3.8-1.3-5.8c0.2-3.7,2.8-6.6,4.6-9.6c1.2-2,2.4-4.6,4-6.1c1.6-1.6,3-1.8,5.1-4l6-6.7c0.9-1.3,1.5-3,2.8-3.9
	c1-0.6,3.8-1,5.2-1.4l2.4,3.8l8.6-8.2l1.4,4.3c1.4-0.4,2.9-0.9,3.8-2.1c0.8-1.1,1.1-2.8,2.2-3.7c1.8-1.5,6.6-1.4,8.9-1.4
	c0.6-4.2,1.9-7.2,3.6-11c1-2.4,1.6-4.2,4.1-5.4c3.4-1.5,4.3,0.7,6.2,0c1-0.4,2.1-1.9,3-2.6c1-0.8,3.9-2.2,5.2-2.5
	c2.7-0.7,4.4,1.1,6.2,0.8c1.3-0.2,2.3-1.4,3.4-2.2c2.4-1.8,5.7-2.8,6.7-4.2c0.4-0.6,0.6-1.5,0.7-2.2c0.9-5-3-6.1-4.6-10.1
	c-0.7-1.8-0.4-9.2-0.4-11.5l4.3-0.5c0-4.7,0.8-9.1,3.7-13c1.3-1.7,3.2-3.8,5.4-2.6c3.8,2,2.4,5.3,4.3,8.3c1.7,2.8,3.4,2.6,6.3,3.4
	c2.1-3.2,7.1-9.6,11-10.5c1.9-0.4,3.8,1.2,5.8,0.9c2.9-0.5,2.1-2.4,8.2-2.4c0.6-3.1,3.4-11.2,5.5-13.3c1-1,2.9-1.9,4.1-2.7
	c2.1-1.4,4.4-3.5,7.2-2.9c4.9,1.1,4.6,5.8,6.9,8c1.9,1.8,4.4,2.1,6.1,4.6c3.1,4.7,0.1,6.4,0.3,9.6c0.1,1.6,2,4.4,3.2,5.4
	c2.7,2,4.9,0.7,7.5,0.6c3.7-0.1,9,2.4,10.9-3.6c0.7-2.3-1.4-3.7-2-6.2l-0.2-8.2c-0.2-2.1-1-4.3-1.9-6.2l3.8-2.9
	c2.8,2.1,4.7,2.9,7.1,5.8c2.9,3.4,0.9,4,5.9,7.2c1.7-3.3,2.6-6.3,5.3-9.1c1.3-1.3,5.6-4.6,7.2-5.5l4.2-2.1c3.5-2.7,3.8-6.6,9.3-5.4
	l4.8-6.1l4.1-1.6l2.2-4.3c3.1,1,10.2,2,12.6-0.8c1-1.2,1.2-3.6,2.2-4.8c1.2-1.4,2.9-1,4.2-2.1c2.7-2.2,1.7-6.3,1.2-9.2l-7.7-2.9
	c0.8-0.8,1.9-1.8,2.4-2.9c1.7-3.7-2.9-7.6-4.2-10.6c-1.2-2.7-2.3-6.9-5.8-7.4c-3.7-0.5-5.2,3-7.7,4.8c-2.2,1.6-4.2,1.2-6.7,1.2
	c0-1.4,0.2-3.5-0.5-4.8c-0.8-1.5-2.2-1.9-2.7-3.9c-0.3-1.2,0.1-2.2-0.6-4.3c-0.6-1.6-2-4.1-2-5.8c0-2.1,1.6-3.9,1-6.2
	c-0.7-2.6-2.5-3.5-4.2-5.1c-1.9-1.8-2.4-3.7-3.6-4.5c-1.1-0.7-3.4-0.5-4.6-0.5c2.8-3.5,5.5-7.1,10.1-3.8l3.2-2.1l5.5,2.6
	c0.7-1.3,1.3-2.2,1.2-3.8c0.1-1.1-0.5-2.6,0-3.6c0.6-1.5,4.4-2.4,4.5-5.5c0.1-2.4-3.4-4.7-3.1-6.7c0.2-1.2,2.6-2.9,3.5-3.9
	c2.1-2.1,2.7-3.4,3.4-6.2l-3.4-1l-1.1,2.3c-0.7,1-1.5,1.6-2.7,1.8c-3.5,0.7-3.2-2.3-6.7-5.6c-3.2-3-5.4-2-5.9-7.2
	c-0.5-6.3,4.3-7.2,7.7-11.1c1.9-2.1,1.8-3.5,3-5.2c1.3-2,2.8-2.5,4.3-4.4l5.7-9.5c1.2-1.6,2.9-2.7,4.4-3.9c0.6,4.1,1,5.9,4.3,8.6
	V52.8l1.4-12.5c4.8,0.6,5.1-1.4,4.8-5.8l-3.3-15.8c-0.4-3.3,0.6-3.5,2.1-6.2l3.6-8.6c0.6-1.8-0.4-3.1,0-4.8c0.3-1.6,2.5-4.6,0.9-7.7
	c-0.8-1.6-6.9-6.6-8.6-8c-0.9-0.7-1.4-1-2.4-1.4c-6.9-2.8-5.9,2.8-11.5,6.3c-1.8,1.1-6.1,3-8.2,3.1c-2.1,0.3-3.1-0.5-4.8,0
	c-3.4,0.8-3.2,3.4-9.1,3.4c-0.9,0-2,0-2.9-0.3c-3-1.1-4-4.3-5.2-6.9c-1.2-2.7-4.6-8.8-4.5-11.5c0-1.1,0.7-2.4,1.1-3.4
	c-5.1,0.5-3.3-1.9-10.6-3.8c-1,2.2-2.1,5.8-5.3,5.1c-1.8-0.4-2.2-1.9-3.9-3c-1.9-1.2-4.5-1.8-6.6-2.1c3.6-3.7,6.5-6.5,6.2-12
	c-0.2-2.5-1-5.3-3.8-5.9c-1.4-0.3-2.5,0.5-3.8,0.8c-1.8,0.5-3.5,0.2-5.2,1.3C1084.6-45.8,1081.1-39.6,1079.8-37.4L1079.8-37.4z"/>
<path id="Ningxia" class="st0" d="M834.9,369.2c-3,0.5-6.2,0-8.6,1.9l7.2,1l-2.4,3.8c5,0.4,4.2,1.6,7.3,4.6c2.6,2.5,5.4,4.8,6,8.7
	c0.4,1.7-0.6,3.5,0,5.5c0.7,3.2,2.5,2.9,2.9,9.1c0.2,3.6-1.8,5.3-0.9,7.7c1,2.8,8.3,7.4,11.1,8.3c1.2,0.4,2.6,0.3,3.8,0.3l-2.9,1.9
	l3.8,0.8l4.3,3.1c2.3-5.2,1.2-5.5,1-10.6c1.4,0,3.5,0.1,4.8-0.4c1-0.4,2.1-1.2,2.8-1.9c0.9-0.9,1.3-1.4,1.6-2.6
	c0.9-2.8,0.2-5.8-2.2-7.7c-2-1.5-4.9-1.3-5.9-5.8c-0.3-1.4-0.3-4,0.3-5.2c0.6-1.1,1.4-1.6,1.8-3l0.3-4.8c0.2-0.9,0.6-1.6,1.1-2.4
	c3-5.3,6-3.3,10.8-1.9V375l3.8-10.6l3.3-5.3c-6.1-2.1-5.1-3.8-8.6-5.4c-3.2-1.4-5.3-0.4-7.7-1.2c-1.5-0.5-3.8-1.8-4.1-3.5
	c-0.1-0.9,0.4-3.3,0.6-4.3c1-5.8,2-6.7,4-12c1.1-3.1,1.6-3.6,0-6.7c-0.4-0.9-0.8-1.8-1.7-2.3c-3.5-2.4-8.9,1.8-11.2,4.3
	c-4.6,5.2-5.4,12.1-5.5,18.6c0,5.8-1.8,4.9-2,10.1c0.1,1,0.1,3,0,3.8c-1.3,5-7.3,3.9-11,5.3C839.4,367.3,839.9,368.4,834.9,369.2
	L834.9,369.2z"/>
<path id="Qinghai" class="st0" d="M561.9,320.2c-2.1,0.4-2.9,2.5-8.2,3.9l1.1,8.6l1.3,4.2c0.2,1.9-1.7,3.4-0.6,5.3
	c0.7,1.1,3.3,2.7,4.4,3.7c1.3,1.2,6,8.2,7.1,9.9c0.5,0.9,1.6,2.8,1.5,3.8c-0.1,1-0.7,1.7-1.4,2.4c-3.2,3.5-8.1,2.5-9.2,6.7
	c-1,4.1,6.2,9.3,3.5,14.4c-0.5,0.9-1.6,1.8-2.4,2.5c-1.2,1-2,1.6-3.4,2.4c-1.9-4.3-3.1-3.2-6.7-4.4l-4.8-2.2
	c-2.3-0.5-3.6,1.5-5.6,1.8l-3.6-0.4l-4.8,0.4c0.9,4.8,4.1,7,2.4,12.5c-0.4,1.2-0.8,2.3-1.6,3.3c-0.9,1-2.9,2.2-4.1,3
	c1.1,4.6-0.3,7.4,4.8,9.6c-0.5,1.6-1.7,6.2-1.8,7.7c0,2.3,1.8,7.2-0.9,10.4c-0.8,0.9-2.1,1.8-3.1,2.5c0.4,1.8,0.7,5.3,1.4,6.7
	c1,1.8,2.7,2.7,4,5.3c3.3,6.6,1.3,6.5,8,12.3c1,0.8,2.6,2.3,3.8,2.6c1.4,0.4,3.3-0.2,4.8-0.4c4.7-0.6,5,0.1,10.1-2.1
	c2.3,7.2,0.9,5.8,6.7,11.5c2.2,2.2,2.6,3.2,5.8,3c4-0.2,3,2.1,8.2,3.9l8.6,2.5l10.1,3.9l4.8,0.3c3,0.6,5.2,3.8,9.1,4.3
	c3.5,0.5,8-3.4,10.6-2.7c3.6,1,5.5,6.1,7.8,8.7c2.2,2.5,3.6,0.8,5.5,2c0.8,0.5,1.3,1.6,1.7,2.4c2.2,4.3,1.8,4.9,1.8,9.6l13.4,3.8
	l0.5-5.3c7.9,2.3,5.4,5,12.5,6.2c0.8-3.7,1.3-4.7,4.3-7.1c1.1-0.8,2-1.6,3.4-1.9c0.8-0.1,2.5-0.1,3.4,0c0.1-2.8,1.7-9.7,4.4-10.8
	c1-0.4,4.4-0.3,5.7-0.3c-1.7-2-5-4.2-5.8-6.2c-1.4-3.4,0.5-4.6,2.2-7.2l5.1-9.1c-0.8-0.4-2.1-1.2-2.7-1.7c-3.2-2.9-2.4-6.8,0-9.7
	c0.8-0.8,2.1-2.1,3.2-2.5c2.1-0.7,3.5,1.6,5.3,2.1c2.1,0.6,3.3-1,6.7,0.7c1.6,0.8,5.3,3.5,6.2,5c0.8,1.4,0.7,3.2,1.2,4.7l3,5.8
	c0.6,1.3,1.6,4.1,2.5,5.1c0.9,1.1,2.7,1.9,3.9,2.6c2.5,1.5,7.5,6,10.1,5.8c1.3-0.1,2.6-0.5,3.7-1.3c0.9-0.7,1.7-1.9,3-1.6
	c2.3,0.6,3.9,4.5,5.6,5.9c1.2,1,3.5,0.8,5,0.8l-0.5,6.7c3.9,0,4.5-0.1,5.8-4.8c2.4,0.6,7.4,1.8,9.1-0.6c2-2.8-0.4-6.5-0.4-7.9
	c0.1-3,4.3-5.2,7.1-4.7c1.1,0.2,2.7,1.2,3.8,1.7c0-2.1,0.3-4.3,0.9-6.2c0.5-1.6,1.6-3.2,0.7-4.8c-2-3.5-4.7-1.3-7.3-2.8
	c-3.3-1.9-8-6.9-9.3-10.6c-0.5-1.5-0.8-4.7-0.8-6.2c4.7,0,6.7,0.5,11,2.3c3.4,1.5,6.6,3.8,10.6,2.8c1.3-0.3,1.9-0.9,2.9-1.8
	c0.9-0.8,2.9-2.7,3.1-3.8c0.3-1.2-0.7-2.5-1.4-3.4c-2.5-3.1-4-4.2-7.9-4.8l4.5-1.8c1.3-1.1,1.5-3.2,3.7-5.2c2.6-2.3,4.8-2.7,5.5-6.9
	c0.2-2-1-3.6,0-5c1.4-1.7,7.4-3.1,8-5.2c0.3-0.9-0.4-3.2-0.6-4.2l4.8-1c-1.1-4.5-0.9-4.8-0.4-9.1c0.3-3-1.6-3.6-2.9-6.7
	c-1.6-3.8-1.8-7.6-2.4-9.1c-0.9-2.2-2.7-3.1-2.6-4.8l1.6-4.3c-5.4-2.6-4.2-3.1-6.9-5.6l-3.4-2.4c-0.9-0.9-1.6-3.2-2.2-4.5l-1.4,3.8
	c-3.3-2.1-3.6-2.9-6.2-5.1l-5.3-3.8l-3.8-3.2l-7.6-4.5c-1.6-1.3-1.7-2.8-3.2-4.1c-2.6-2.3-3.1-1-6-5.7l-2.4,5.3
	c-4.5-2.6-8-5.1-11.4-9.1c-3.6-4.4-4.4-7.7-10.2-10.8c-3.7-2-3.8,0.6-6.2,0.6c-1,0-3.4-1.4-4.8-1.8c-0.5,0.8-1,1.6-1.7,2.2
	c-2,1.9-5,1.2-7-0.3c-2.6-1.9-8.7-7.7-12-7.2c-2,0.3-3.4,2.5-3.8,4.3l-2.4,16.3c-6-1.6-5.3-3.2-9.1-5.9c-2.2-1.5-4.8-1.9-7.2-3.8
	l-9.3-9.7c-2.4-2.3-5.9-4-9-5.2l-9.1-3.1c-1.4-0.5-4.6-2.1-5.8-2.2c-1.8-0.1-3.5,1.2-5.8,1.1c-2.3-0.1-5-1.5-7.7-1.3
	c-3.3,0.3-6.4,2-8.2,2.2c-1.5,0.2-2.8-0.4-4.3-0.4l-9.6,1.1l-4.3,1.4l-6.2,0.9l-9.6,1.9c-3.3,0.6-5.2,1.7-8.6,1.8L561.9,320.2
	L561.9,320.2z"/>
<path id="Shaanxi" class="st0" d="M954.4,314.5c-3.4,1.3-6.4,5.1-8.2,8.2l-2.9-3.8c-1.3,0.3-4.6,0.8-5.5,1.4
	c-0.8,0.6-1.7,2.4-2.4,3.4l-6,6.7c-2.4,2.7-3.9,2.7-5.6,4.5c-1.1,1.1-2.6,4.1-3.5,5.6c-2.2,3.6-4.9,6.5-4.3,11
	c0.2,1.3,0.9,3.1,1.3,4.3c-1.1,0.4-3.2,1.1-4,1.8c-1.2,1.1-2,5.6-2.2,7.4h-6.7c-1.3,0.2-3.1,0.8-4.3,0.3c-1.4-0.6-1.9-2.1-2.8-3.1
	c-1.2-1.2-5.2-2.7-6.8-2c-1.6,0.7-3.1,3.2-3.8,4.8c-2,4.3-3.5,8.1-3.4,13c0.1,4.9,3.4,7.3,7.7,8.7c1.3,0.4,3.7,0.8,4.7,1.4
	c1.5,1,2,2.9,3.3,3.9c1.1,0.9,2.5,0.8,4,1.5c4.2,1.8,2.2,2.8,8.2,2.8l1.3,6.2c0.3,2.2-1,3-1.8,4.8c-0.6,1.5-0.6,4.1-0.5,5.8
	c0.4,3.8,2.1,3.4,1.3,8.6c-0.1,0.8-0.3,2-0.8,2.7c-0.8,1.2-3,1.4-4.3,1.6h-4.3c-4.2,0.4-3.4,1.4-8.1,0c0,1.1,0.3,4,0,4.8
	c-1.1,3.5-8.9,5.2-12.1,4.1c-2.4-0.9-2.5-2.8-7.2-3c-1.6-0.1-3.2,0.2-4.8,0.4c0.1,1.4,0.5,3.6,0.3,4.8c-0.5,3-2.5,4.9-4.1,7.2
	l8.2,5.3l-4.3,4l-0.5,4.7l-0.4,6.2l2.3,5.8h-4.3c-4.6,0.5-3.5,1.4-8.6,0c-0.5,1.2-2.1,4-2,5.2c0.1,1.8,1.7,2.7,1.8,4.8
	c0.3,3.3-2,6.4-5.1,7.4c-1,0.3-2.3,0.3-3.4,0.3l1.4,3.8c2-1,6.3-3.8,8.5-3c1.4,0.5,2,2.3,2.9,3.3c1,1.1,2.5,1.3,3.9,1.5
	c2.5,0.3,7.3-1.1,10.1-1.6c1.4-0.2,3.4-0.5,4.6,0.6c1,0.9,1.7,3.7,2.2,5l5.8-1.9c2,5.5,3.3,4.3,6.2,5.9c3.6,2,2.6,2.3,7.2,2.2
	c2.6-0.1,4.5-0.8,7.2-0.4c3.3,0.5,10.5,4.7,13.9,6.5c4.8,2.5,4.6,4.8,6.8,5.6c1.3,0.5,3.9-0.3,5.2-0.7c-1.8-7.2-0.2-8.1-0.3-11
	c-0.1-2-1.3-3-1.7-4.3c-0.5-2.1,1.8-4.3,3.4-5.3c2.9-1.8,4.1-0.4,6.2-0.7c1-0.1,2.4-0.8,3.4-1.2l-3.7-5.8l-3.4-1.2l-3.3-4.5
	l-5.5-1.4c0.9-1,2.2-2.8,3.4-3.3l9.6,0.4l5.3,0.4l3.4-0.6c1.9,0.1,2.7,2,4.3,2.1c0.9,0.1,1.7-0.5,2.4-1c3.3-2.5,2.9-3.8,2.9-7.6
	c-0.1-4.7-2.7-3.3-6.3-9.1c-1.7-2.8-1-4.7-2-6.7c-1-2-3.3-2.9-4.2-4.5c-0.8-1.4-0.7-6.2-1.3-8c-0.7-2.1-2.3-3.4-2.4-5.8
	c0-2.4,1.4-9.7,2.2-12c0.9-2.5,2.8-7,2.8-9.6c-0.1-3.6-2-6.6-2.8-10.1c-0.9-4-0.2-7.6-0.6-11.5l-1.7-9.1c0-3.1,1.4-5.4,2.5-8.2
	c1.1-2.8,2.8-9.6,2.6-12.5c-0.3-3.5-4.7-9.1-4.6-11.5l4.5-9.6l2.7-7.7l1.2-5.8c0.5-1.8,1.7-3.5,1.6-5.3
	C956.5,320.3,955.1,316.8,954.4,314.5L954.4,314.5z"/>
<path id="Shanghai" class="st0" d="M1191,510.7c3.1-1.1,4-2.4,6.2-4.7c-1-1.8-3.4-5.2-4.9-6.6c-1.3-1.2-2.6-1.7-4.2-2.3
	c-1.4-0.6-4.3-2-5.8-1.6c-2.3,0.6-3.4,3.7-4.1,5.7c-0.4,1.2-1.6,5.6-1.5,6.7c0.4,3,6.2,6.2,7.9,6.3
	C1187,514.3,1187.5,512,1191,510.7L1191,510.7z"/>
<path id="Shandong" class="st0" d="M1046.7,398.1c1.4,0.1,3.3,0.5,4.7,0c2.6-0.8,2.2-2.2,7.2-2.9c-1.1,1.9-1.6,3.4-3.4,4.8l-5.4,3.6
	c-1.4,1.5-1.1,3.5-3.2,6.4c-2.9,4.1-4.4,2.9-5.8,4.6c-1,1.2-2.8,7.1-3.4,8.9c4.6,0,6.8-0.8,10.5,2.3c5.2,4.3,1.2,6.8,7.2,6.8
	c4.1,0,4.6-0.7,7.7-0.9c2.1-0.2,3.9,0.2,5.7-1.3c2.1-1.7,1.2-3.4,1.8-5c0.6-1.6,3.9-3.7,5.5-4.1c3.9-0.9,6,2.3,7.8,5
	c0.6,0.9,1.4,2.4,2.4,2.8c1.2,0.5,2.3-0.5,3.7-0.4c2.4,0.2,3.8,2.7,7.2,1.3c3.1-1.3,4.2-3.8,6.2-3.9c1.5,0,5,2.7,7.7,3.6
	c0.1-1.8,0.3-3.8,1.6-5.1c1.3-1.4,3.6-1.7,4.5-3.3c0.8-1.4,0.6-5.6,3.3-8.3c2.1-2.1,6.3-2.4,7.7-4.6l5-11.8c1.4-1.8,3.4-1.4,4.7-3.6
	l3.2-7.6c0.4-1.9-0.6-3.4,0-4.7c0.5-1.1,2.2-1.9,3.2-2.5l1,4.3l6.2-2.9l-1-6.7h3.8c0.6-3.6,0.5-3.8-2.9-5.3c5.6-2.4,4.8-1.1,11-5.1
	l7.7-5.9c1.4-0.8,2.6-0.7,3.8-1.3c1.2-0.5,2.4-1.6,3.4-1.6c1,0,2.9,1.7,3.8,2.4l0.9-5.8l2.4-4.3v-4.8l-5.7,1.2c-2.2,0-4.8-1.5-7.7-1
	c-3,0.5-5.4,2.8-7.2,2.4c-1.3-0.3-2.3-1.8-3.8-2.3c-2.4-0.8-2.2,1.2-6.7-1.6c-2-1.2-4.4-3.7-6.7-3.1c-2.1,0.6-7,4.1-8.4,5.8
	l-2.3,3.3c-0.9,1.2-1.8,1.9-2.6,3.4c-1.4,2.7-1.9,7-5.5,9c-1.9,1.1-7.5,1.5-9.6,0.8c-1.4-0.5-2.3-1.7-3.8-2.4
	c-1.1-0.5-3.1-0.9-4.3-1.1c1.4-5.2,2.1-7.3,1.1-13c-0.3-1.6-0.8-3.9-2.2-4.8c-0.9-0.6-2.2-0.5-3.2-0.5c-1.7,0-5.2-0.1-6.7,0.3
	l-4.3,2c-2.5,0.7-2.8-2.3-5.8-2.9c-2.3-0.5-2.9,1.4-3.9,3c-1.4,2.2-2.9,4.2-5.2,5.4l-10.6,3.4c-3.5,2.7-4.8,7.1-6.4,8.7
	c-2.3,2.1-5.7,2.1-7.6,5.2c-3.1,5-1.9,7.1-4.3,11c-1.9,2.9-7,7.6-7.3,11c-0.2,2.4,2.5,5,3.2,7.2
	C1047.5,393.6,1046.8,396,1046.7,398.1z"/>
<path id="Shanxi" class="st0" d="M1013.2,285.1l-2.6-4.8c-0.3,1.2-0.5,2.8-1.2,3.7c-1.2,1.6-4.6,2.8-6.4,3.9c-1.1,0.7-2.9,2.6-4,2.8
	c-0.9,0.1-2.9-0.8-4.1-1c-2.1-0.3-6.5,1.6-7.9,3.2c-0.9,0.9-1.2,1.7-1.7,2.8c-2-0.6-3.6-1.6-5.8-1.1c-3.3,0.9-3.8,3-5,5.9
	c-1.6,4-3,6.6-3.2,11c-2.3,0-6.6-0.2-8.5,0.8c-1.7,0.9-1.8,2.5-2.8,3.9c-1.1,1.3-2.4,1.7-3.1,2.7c-0.6,1.2,0.3,2.6,0,4.6l-1.4,3.8
	l-1.4,6.7c-0.9,2.9-2.6,7.4-3.9,10.1c-0.7,1.4-3.1,5.1-3.3,6.2c-0.5,2.8,4.6,8.9,4.8,12.5c0.2,6.8-4.2,13.7-5,18.7
	c-0.4,2.9,1,7.1,1.6,10.1v8.2c0.2,7,3.6,10.1,3.3,14.4c-0.1,2.1-2.1,6.9-2.9,9.1c-0.7,2-2.4,11.1-2.1,13c0.2,1.4,1.5,3.4,2.3,4.8
	c2.8-0.8,6-1.4,8.6-2.5c3.3-1.5,4.8-3.1,6.2-3.7c2.4-1,3.4,0.3,6.7-1.5c3.6-2,4.8-4,6.7-5.4c1.9-1.4,3.1-1,4.8-2
	c1.5-1,2-2.4,3.9-3.3c3.3-1.6,7.5-0.7,11-1.8c3.3-1,5.6-2.8,8.2-5.2l4.1-3.9c2.2-2.7,3.1-8,3.1-11.4c0-2,0.3-7.5-0.5-9.1
	c-1-2-5-6-4.1-8.5c0.5-1.4,2.2-1.4,3.3-3.5l3.6-12.9c0.7-1.6,2.8-5.8,2.7-7.2c-0.1-1.9-3.8-7-4.8-9.1c-0.7-1.4-1.3-3.4-2.3-4.5
	c-1.1-1.1-5.4-2.7-5.9-7c-0.5-4.2,2.7-5.4,3.8-8.2c1.3-3.2-1.8-5,2.6-8.4c1.6-1.2,3.3-0.5,5.1-0.9c3.4-0.9,3.8-3.6,3.8-6.6
	c0-3.5,0.4-10.7-3-12.9l-4.7-1.3l-3.8-1.7c3.2-7.2,5.7-5.2,10.6-9.6L1013.2,285.1L1013.2,285.1z"/>
<path id="Sichuan" class="st0" d="M800.9,459c-0.8-1.8-4.8-6.8-6.3-8.2c-5.9,5.9-4.6,3.2-9.1,5.6l-4.3,3l4.1,9.9l-1.8,3.5l-3,4.8
	l-4.7,0.5c0-4,0-6.3-4.3-7.7l-2.4,10.6c-0.9-0.8-1.7-1.7-2.9-2.1c-2.7-0.9-6.9,0.5-7.6,3.6c-0.4,1.6,0.8,3.1,1,4.8
	c0.8,6.5-5.5,5.9-9.7,4.8c-2.3,4.5-1.4,4.8-6.7,4.8l0.5-6.7c-1.8,0-3.2,0.2-4.6-1.1c-1.2-1.1-3.3-5.4-5.4-5.9
	c-2.1-0.6-2.9,3.2-6.7,3.2c-1.8,0-3-1.1-4.3-2.1l-9.8-6.6c-1.1-1.2-2-4.1-2.8-5.7l-2.8-5.3c-0.6-1.6-0.4-3.7-1.3-5.1
	c-0.9-1.3-3.8-3.4-5.3-4.1c-3.4-1.6-4.9-0.3-6.7-0.8c-2.3-0.6-3.6-3.5-6.2-2.2c-5,2.4-7.1,10.9,0.5,13.1l-5.1,9.1
	c-1.3,2-3,3.2-2.8,5.8c0.8,7.4,11.4,9.2,15,13c1.4,1.5,4.6,8.4,5.1,10.5c0.4,1.7,0.2,3.4,1,5.3l4.8,7.5l3.2,3l-4.3,0.5l0.2,6.2
	l3.5,9.6l0.7,12l1.6,7.2l-1.6,7.2l1.9,14.9v5.3l-0.6,5.3l2,9.1l2.5,4.3l1.3-5.3l4.5-10.6l4.6,4.8l3.2,4.3l3.4,3.8
	c1.2,2.3-2,2.5-1.6,5.3c0.1,0.9,0.9,2.6,1.4,3.4c3,4.6,8.2,4.3,13,4.3c1,5.6,4.5,9,6.6,13.9c0.9,2.3,0.9,6,2,7.5
	c0.9,1.2,6,4.8,6.9,6.7c0.8,1.7-1.5,3-1.1,4.9c0.3,1.3,2,2.5,2.9,3.4c2.3,2.3,3.5,5.5,6.3,7.4c1.4,0.9,2.3,0.8,3.8,0.6
	c6.6-0.8,7.4-4.3,11-5.3c2.2-0.6,2.8,2.3,5.8,1.5c2.1-0.5,3.2-1.5,4.2-3.4c3.4-6.3-1.2-9.2-1.3-15.4c0-1.5-0.2-5.4,0.5-6.6
	c0.9-1.5,2.8-1.8,4.2-2.8c1.3-1,2.4-3.5,3.7-4.9c1.2-1.5,4.4-4.3,5.1-5.8c0.7-1.5-0.2-5.9-0.5-7.7c3.3-0.5,6-1.2,7.7-4.3
	c2-3.5,0-7.8,4.8-7.6c1.7,0.1,5.3,1.1,6,2.9c0.2,1-0.4,2.4,0,3.6c0.6,1.4,2.3,2,2.8,3.5c0.3,1.2-0.5,2.3,0,4.3c1.6,6,5.8,5.1,10,2.4
	c1.6-1.1,3-2.5,4.3-3.9l5.3,10.1c0.9-0.4,2.8-1.3,3.6-1.3c1.4,0,3.6,1.8,5.5,2c1.5,0.1,3.7-0.9,5.3-1.3l4.6-0.6
	c0.7-0.3,1.2-1,1.6-1.7c1.6-2.8,0.5-4.9-0.5-7.7l-5.1,0.4l-2.8-2.5l-4.1-1.2c-0.2-1.2-0.8-4.3-0.5-5.2c0.4-1.6,6.5-5.8,8.2-5.7
	c1.3,0.1,4.1,2.3,6.7,3.3c-1.4-3.5-2.5-6.8-6.2-8.6c-2-1-3.6-0.1-5.1-1.3c-1.5-1.2-1-2.9-4.1-5.8c-1.5-1.4-6-5.1-6.4-6.9
	c-0.3-1.2,0.9-3.3,1.6-4.3c1.9-2.9,4.8-4.9,5.8-8.6c0.8-2.8-2.3-3-1.1-5.2c0.4-0.8,4.7-4.9,5.5-5.2c2.9-1,5.4,2,7.7,3.1
	c2.4,1.2,3.3-0.8,5.3,0c1.3,0.5,6,6.2,10.6,5c3.1-0.8,5.5-6.1,7.1-8.8c0.6-1.1,1.6-2.6,1.9-3.8c0.5-1.9-0.2-3.4,1-5.3
	c3.1-4.8,7.2,0.3,10.8-4.6c0.8-1.1,1.6-5.7,2.3-7.4c2.2-6,3.7-8,8.2-12.5c-1.5-2.4-4.4-6-3.2-9.1c0.3-0.9,2-2.8,2.7-3.8l-4.8-0.6
	l-8.2,0.4l-3.8-2.2l-3.7-1.6l-3.6-3.5l-5.2,1.4l-1.4-5.7h-4.8c-2.8,0.4-7.6,1.9-10.1,1.6c-1.6-0.2-2.9-0.6-4-1.8
	c-0.9-1-1.4-2.4-2.8-2.9c-2.5-0.9-6.9,1.9-9,3l-1.4-4.3c-1.9,1.9-3.8,5.4-5.8,6.4c-5.8,2.8-16.6-2.7-20.1-7.4l3.4-1.9
	c-1-4.4-4.3-14.5-8.6-16.4c-1.5-0.7-3.6-0.4-5.3-0.5c-2.5-0.3-7.5-1.8-9.5-3.3C801.2,463.1,801.9,461.1,800.9,459L800.9,459z"/>
<path id="Taiwan" class="st0" d="M1220.1,651.8c-1.3-1.2-5.2-2.3-7-2.7c-0.9,1.6-1.4,2.8-2.9,3.9c-2.4,1.9-5.7,3-7.5,5.7
	c-2,3.1-0.5,6-1.6,8c-1,1.7-2.9,2.1-4.4,4.9l-2.5,8.2c-1.3,3.6-5.3,11.7-5.5,14.9c-0.1,2.4,1.1,3.8,1.3,5.6c0.2,1.6-0.7,3-0.3,5
	l2.4,5.8c1.1,3.2,0.8,5.4,3.1,8.6c1.9,2.7,6.1,3.8,8.6,6c3,2.6,1,3.5,7.2,6.5c0-4.8-1.5-7.2,0-12c1.3-4.5,2.3-5,4.4-8.6
	c0.8-1.4,3.3-7.7,3.6-9.1l0.3-4.8c0.3-3.4,0.9-3.4,0.9-7.7c0-9.4-0.3-6.6,1.4-15.8l2-8.6c0-1.9-1.2-3.2-1.5-5.8
	C1222,657,1222.2,653.8,1220.1,651.8L1220.1,651.8z"/>
<path id="Tianjin" class="st0" d="M1069.6,291.9c-0.1,3.7,0.5,6,1,9.5c-1.3-0.1-4.8-1.2-5.8,0c-1.7,1.9,1.6,7.9,1.8,10.2l-1.2,8.6
	c-0.1,1-0.1,2,0.4,2.9c0.9,1.6,4.9,4.2,6.7,4.4c1.4,0.2,6.9-1.1,8.7-1.5v-4.8c0.4-2.6,2.3-9.2,4.4-10.7c0.9-0.7,1.7-0.7,2.8-0.8
	l-3.4-9.1l-3.8,1l-2.7-4.8l-1.2-5.8l3.4-1c-2.9-3.2-8.6-6.4-10.8-0.5C1069.6,290.3,1069.6,291.1,1069.6,291.9L1069.6,291.9z"/>
<path id="Xinjiang" class="st0" d="M468.3,83.4c-1-0.4-3.2-0.3-4.3-0.3c-1.3,4.9-2.5,4.8-4.6,8.6c-3.5,6.2-2.5,5.5-7.4,12
	c-1.8,2.4-4.5,4.7-5.7,7.2c-1.1,2.4-2.1,6.5-1.9,9.1c0.2,2,1,2.9,1.2,4.3c0.2,1.4-0.4,3.4-0.7,4.8c-3.9-2.9-4.2-1.3-6.2-2.4
	c-1.4-0.8-2.2-2.9-3.9-4c-1.4-0.9-3.2-0.8-4.8-0.8l-13,1.4h-6.2l-3.8-0.6c-2.4-0.2-6.2,0.5-6.6,3.5c-0.3,2.6,3.6,4,3.9,7.2
	l-1.6,15.4v5.8c0.4,3.4,0.9,3.4,0.9,7.7v10.1c-2-0.4-4.9-1.5-6,1.1c-0.6,1.3,0.1,3-1.4,4.3c-1.1,0.9-6.2,1.9-7.2,4.4
	c-0.8,1.7,0.5,6.5-2.1,9.9c-1.1,1.4-2.9,1.7-4.4,2.5l-4.3,2.7c-5.3,2.9-5.7,1.5-10.1,2.3l-9.6,2.4l-9.1,2.3
	c-2.6-0.2-3.9-3.7-7.7-3.7c-2.6,0-3.6,2.1-5.8,2.7l-7.2,0.4l-0.5,4.8c-4.5-0.9-5-2.1-6.7-2.4c-5.4-1-7.2,7-12,10.8
	c-4,3.2-5.4,0.7-9.1,1c-2,0.2-5.3,1.4-6.9-0.5c-0.8-1-0.3-2.8-0.4-4.1c-0.1-1.9-0.6-3.1-1.4-4.8l-7.9,2.3l-5.6-2.7v4.3
	c-6.2-2.3-6.8,1.2-10.6,1.8c-1.5,0.2-2.4-0.6-3.8-0.7c-2.7-0.1-6.4,2-7.9,4.1c-1.6,2.2-0.9,3.8-2.4,5.5c-1.8,2-4.7,2.4-6.6,6
	c-1.2,2.3,0.4,3.3,0.5,5.1c0.3,3.3-2.7,6.3-5.2,7.9c0.9,2.1,2.8,6.7,4.8,7.6c2,1,4.1-0.9,6-0.9c2.5,0,6.8,3.8,8.2,5.8
	c1.9,2.7-0.3,5.9-0.9,8.6c-0.6,2.3,0.2,3.4,0,5.8l-2.1,9.1c-0.2,3.1,3.7,4.5-0.3,8c-3,2.5-5,0.1-7.1,0c-0.9,0.1-3.2,0.8-4.3,1.1
	l8.2,6.7l3.8,2.1c3.7,2.8,3.6,4.9,4.8,6.3c1.2,1.3,2.5,0.9,4,2.7c2.5,3,2.8,9.8,1.4,13.4c-0.6,1.4-1.6,2.6-2.6,3.8
	c2.5,3.5,2.9,2.8,2.9,7.2c6.1,0,5,2.2,8.5,6.1c1.5,1.7,3.2,2.2,4.8,3.7c1.3,1.2,2,2.6,3.5,3.7c3,2.2,9.2,2.8,12.9,4.1
	c1.5,0.5,2.9,1.4,4.3,2.1c-2.3,2.7-3.5,4.5-2.7,8.2l1.3,3.8l-0.5,7.2c0.1,3.4,1.5,2.4,5.3,5.8c1.6,1.4,5.6,6,7.2,6.6
	c1.6,0.7,4-0.3,5.8-0.3l8.6,1.4c2.4,0.1,4.2-3.2,5.6-4.9l5.5-7.6l3.8-3.4c1-1,2.6-2.8,3.8-3.3c3.1-1.4,6.7,2,9.1,3.4
	c1.9,1.1,4.1,1.9,6.2,2.2c1.2,0.2,3.3,0,4.3,0.4c1.7,0.7,1.9,2.3,3.1,3.1c0.9,0.6,2.6,0.5,3.6,0.5c1.5,0,3.9,0.2,5.3-0.5
	c2-1,7.7-7.8,13.2-6.7c2.5,0.5,6.7,3,8,5.2c0.6,1.2,0.9,3.4,1,4.8c6,0.5,5.2,2.2,8.6,3.4c4.2,1.5,6.4,0.2,8.6,0.5
	c1.5,0.2,2.6,1,3.8,1c1.8-0.1,4.8-2.5,6.7-3.1c2.1-0.7,5.4-0.1,7.7-0.5c2-0.4,4.7-2,6.7-2c3.7-0.1,6.6,4.7,9.1,4.5
	c2.2-0.2,8.9-4.5,10.5-6.2c1.5-1.5,2.7-3.6,4.8-4.1l9.1-0.8c1.7,0.1,2.3,0.7,4.3,0.5l8.2-1.2c1.5,0.2,2.4,1.5,3.8,2
	c1.1,0.4,3.6,0.3,4.8,0.3l8.6-1c2.9-0.1,5.2,0.3,7.5,2.2c1.2,1,1.9,2.4,3.1,3c1.6,0.9,2.1-0.2,6.2,1.8l9.1,5.7
	c1.8,0.8,5.2,2.1,7.2,1.6c1.4-0.4,2.9-1.7,4.1-1.7c1,0,2.9,1.4,4,1.8l5.3,1.5c1.3,0.7,2.4,2.2,3.4,3.3c1.2-0.7,2.3-1.4,3.3-2.4
	c2.4-2.1,2.6-5.9,1.2-8.7c-1-1.9-3.4-4.9-3-7.2c0.6-4.1,6.6-5,8.1-6c1.3-0.9,2.7-2.3,2.5-4c-0.3-2.2-3.4-6.3-4.7-8.2
	c-1-1.5-1.9-3.4-3.2-4.6c-1.3-1.2-4.1-2.8-4.9-4.1c-1.5-2.1,0.7-3.3,0-6.2c-0.5-2.6-2.7-8.3-1.9-11c0.5-1.6,2.6-2,4-2.7
	c1.4-0.7,3.1-2.1,4.3-2.4l7.2,0.3c4.1,0,5.4-1.1,9.1-1.8l9.6-1.9l6.2-0.9l3.8-1.3c2.2-0.6,7.7-0.3,9.2-1.7c1-1,1.4-5.8,1.3-7.3
	L607,295c0.3-1.5,2.3-3.5,3-5.5c0.6-1.6,1.2-8.6,1.3-10.6c2.1,0.5,5.2,1.7,7.2,1.5c6.9-0.6,6.9-3.8,10.3-8.2l7.4-7.6
	c5.8-5.4,13.1-12.4,21.1-13.8c4.2-0.7,5,0.2,8.6,0.3c1,0,2.5,0,3.4-0.3c7.5-2.8,3.9-12.8,6.5-17.9c0.8-1.6,3.9-2.7,5.5-3.5
	c-0.4-1.9-0.7-4.1-1.6-5.8l-6-8.6c-0.8-1.7-0.4-3-0.7-4.8l-1.8-5.3c-1.5-5.1-0.4-8.3-6.6-9.6l1-6.3c-0.8,0.1-1.6,0.1-2.4,0l-8-3.2
	c-1.1-0.9-1.4-2.2-2.4-3.1l-3.4-2.4l-2.4-3.4l-8.8-7.1c-3.4-2.4-11.2-4.6-15.4-4.7c-1.9,0.1-3.9,0.2-5.8,0c-4.6-0.9-5.3-2.8-9.1-3.5
	l-3.8-0.5c-1.5-0.5-2.3-1.8-3.8-2.3l-3.4-0.5l-2.9-1.3c-1.9-0.7-3.4,0-4.3-2.4c-0.6-1.6-2.1-7.6-1.7-9.1c1.4-5,6-6.5,7.1-12
	c0.6-2.7-0.5-4.1,0-6l1.9-5.1c0.6-2.1,0.4-7.1-0.3-9.1c-1-2.9-3.6-4-5-8.6c-1.2-4.2,0-7.7-1.4-10.5c-0.9-1.9-2.4-1.9-3.7-3.5
	c-1-1.2-1.3-2.7-2.1-3.2c-1.1-0.7-2.3,0.3-3.7-0.8c-1.2-0.9-1.7-2.9-3.6-3.9c-2.4-1.2-3.2,0.7-5.7-1.2l-7.8-6.6
	c-1.2-1.6-1.2-3.5-2.5-5c-1.2-1.3-3.7-2.4-4.5-3.8c-0.9-1.4-0.2-3.6-0.8-5l-4.5-5.4l2.9-1.4l-1-5.3c-1.9,0.4-3.9,1-5.8,0.9
	c-2.5-0.2-10.7-4.7-11.8,1v3.4c-0.3,2.5-2.8,5.5-5,6.5c-0.9,0.4-6.5,1.7-7.5,1.7c-3.3-0.1-6-1.4-8.8,1.9c-3.1,3.7-2.6,4.8-3,9.1
	l-0.8,5.3c-0.2,2.5,0.2,4.8-0.4,7.2c-0.7,2.9-2.3,6.8-5.4,7.9c-2.5,0.8-5.7-1.2-8.2-1.4c-1.6-0.1-2.6,0.6-4.3,0.4l-5.8-1.5
	c-2.8-0.3-4.1,0.3-7.2-1l-6.2-3.2C471.5,86,470.1,84,468.3,83.4L468.3,83.4z"/>
<path id="Xizang" class="st0" d="M329.1,496.2c0.8,1.1,2.2,1.6,3.4,2.1c1.1-1.4,3.1-4,4.4-5.1c3-2.5,4.5-1.9,7.6-0.3
	c1,0.5,2.4,1.1,3.2,1.9c2.1,1.8,3.9,6.3,5.3,8.8c1.4,2.3,2.7,2.6,4.2,4.4c1.9,2.3,1.4,3.5,5,6.4c2.2,1.7,6,3.5,7.4,5.2
	c2.3,2.9,2.8,7.3,6.5,10.2c3.3,2.5,3.6,0.1,6.2,0.5c2.1,0.3,5.2,2.6,6,4.6c0.4,1,0.3,2.7,0.3,3.8c0,5.9,3.4,6.6,7.2,9.8
	c1.2,1,2,2.3,3.4,2.9c1.4,0.5,3.3,0,4.6,0.8c2.4,1.5,2.6,6.6,3.8,7.7c0.6,0.5,7.4,2.1,9.7,3.8c1.6,1.2,1.8,3.6,2.6,5.3
	c0.8,1.7,2.2,3.2,3.2,4.8l1.9-3.4c1.6,1.1,4.7,4.6,6.2,4.7c2.9,0.2,3-3,7.7-1c1.9,0.8,4.1,2.1,5.6,3.7c0.8,0.8,1.4,2.2,2.3,2.7
	c1.4,0.9,5.1,0.3,7,0.7c1.7,0.4,3,1.4,4.3,1.4c1.7,0,2.7-1.4,4.3-1.5l3.4,0.7c1.4,0.3,4.8,0.2,6.2,0c4-0.8,5.3-2.5,7.7-1.3
	c7.3,3.7,2.1,8.5,1.9,13.9c-0.1,3.9,0.7,5.3,3.8,7.7c0.8-2.9,2-8,3.9-10.1c2.1-2.4,3.8-3.2,5.6-4.9c2.7-2.6,3.1-4.6,7.3-5.8
	c2.3-0.6,8.6,0.2,10.6,1.4c1.6,1,2.8,2.8,4.8,3.9l7.7,2.6c2.3,1,3,2.3,4.8,2.7l5.8-0.3c3.7,0,4.6-0.2,6.4,3.4c0.5,1,0.9,1.8,1,2.9
	c0,1.6-1,3.6,0,5c2.2,2.8,7.5,2.6,8.6,6c1.8,5-2.2,6.7,0,11c0.4,1,0.8,1.5,1.8,1.9c0.6,0.1,2.1,0.1,2.8,0l6.2-0.5l3.4,1.2l4.3,0.6
	l4.8,1.3l5.8-0.6c2.1-0.1,5.2,0,7.1-0.9c1.9-0.9,1.9-2.7,3.2-4.3l7.9-7c3.5-2.6,6.5-0.9,10.1-2.3c3-1.2,12.5-5.4,14.9-7
	c3.5-2.4,3.6-5.1,9.1-6.1c5-0.9,5.9,0.8,10.1,2.4c3.2,1.2,6.9,2,9.6,4.3l3.4,3.1l3.8,2.7c0.8,0.7,2,2.2,3,2.3c2.1,0.3,4-2.8,4.8-4.4
	c1.9-3.8,4.1-11.1,8.5-12.8c2.4-1,3,2.4,5.4,4.3c0.9,0.8,5.7,3.8,6.6,3.8c1,0,3.3-1.5,4.3-2c0.5,1,1.1,2.3,2.1,2.9
	c1.2,0.7,4.7-0.3,5.2-1.6c0.4-1.1-1.1-8.4-1.2-10.3c-0.1-2.1,1.8-5.3,2.4-7.8l4.8,2.9l2-5.3l2.1-3.8l-1.6-11l1.7-7.7l-1.7-7.2v-7.2
	l-1-6.7l-3.4-10.1l0.7-4l3.1-1.2l-2.7-2.9l-4.8-7.6c-0.7-1.8-0.6-3.6-1-5.3c-0.6-2.4-3.7-9.3-5.5-10.9c-2.4-2-7-3.5-10.1-3.6
	c-1.7,0-3.6-0.3-4.8,1.1c-1,1.2-2.1,4-2.5,5.6c-0.2,1.1-0.4,2.8-1.2,3.6c-1,1-2.6,0.6-4,1c-1.2,0.4-2.8,1.6-3.7,2.5
	c-2.4,2.3-1.9,5-3.6,5.7c-2.3,0.8-5.5-2.8-7.1-3.9c-1.4-1-2.7-1.2-4.3-1.7l-1,5.8l-8.6-3c-1.2-0.4-3.7-1.1-4.5-2
	c-1.6-1.8,0.2-4-1.9-8.4c-0.5-1.1-1.2-2.5-2.4-3.1c-1.4-0.6-2.7,0.2-4.5-1.4c-2.7-2.5-4.6-8.5-8.4-9.4c-2-0.5-6.6,2.5-9.1,2.8
	c-4.1,0.5-6.8-3.5-10.1-4.2c-1.5-0.3-3.4,0.1-5.3-0.4l-10.6-4.1c-3-0.9-6.8-1.4-9.6-2.9c-1.7-0.9-2.7-2.3-3.8-2.9
	c-2.1-1.2-3.3,0.4-5.3-0.7c-1-0.5-2.5-2.2-3.4-3c-4.5-4.5-5.4-4.8-6.7-11c-5.3,1.7-4.8,1.5-10.1,2c-1.3,0.1-3.1,0.7-4.3,0.4
	c-1.5-0.4-3.7-2.3-4.8-3.4c-1.3-1.2-4-3.8-4.9-5.2l-3.1-7.2c-2-3.9-3.9-3-4.7-8.2c-0.8-5,1.4-3.5,3-6.4c0.5-0.9,0.9-3.6,1-4.7
	l-0.6-5.8c0.1-1.6,1.4-4.9,1.1-6.2c-0.3-1.6-2-2.3-2.8-3.9c-0.8-1.5-1-5.2-1.4-7.2c9.3-2.9,6.5-11.9,2.9-18.2l4.3-1l-3.4-2
	c-3.2-2.1-3.7-3.1-7.7-4.8c-2.8-1.3-3.7-0.6-5.3-1.4c-1.3-0.7-2.2-2.2-3.4-3.2c-2-1.7-3.7-2.1-6.2-2.1l-10.6,1
	c-1.4,0-3.1,0.1-4.3-0.5c-1.4-0.7-2.1-1.9-3.8-2l-8.6,1.3l-4.3-0.6l-9.1,0.9c-2.1,0.5-3.1,2.6-4.5,4c-1.5,1.5-8.3,5.7-10.3,6.1
	c-1.4,0.2-2.4-1.1-3.4-1.8c-1.8-1.4-3.9-2.8-6.2-2.5c-2.3,0.2-4.2,1.4-6.2,2c-1.6,0.4-3.6,0.3-5.3,0.3c-5,0.1-5.8,2.6-8.6,3.1
	c-1.6,0.3-2.7-0.8-4.3-0.9c-2.4-0.1-3.3,1.2-7.7,0c-2.3-0.8-3.2-2.1-5.3-2.9c-1.4-0.5-3.1-0.5-4-1.5c-1.2-1.2-0.9-3.5-1.7-5
	c-1.1-2-5.4-4.1-7.7-4.4c-6.1-0.8-11.2,5.7-13.4,6.8c-1,0.5-1.8,0.5-2.9,0.5c-1.3,0-4.5,0.2-5.6-0.5c-1.2-0.8-1.4-2.5-2.8-3.1
	c-0.8-0.4-3.1-0.3-4.1-0.4c-2-0.3-4-1-5.8-1.9c-2.8-1.5-6.5-5.1-10.1-3.9c-1.5,0.5-3.2,2.4-4.3,3.5c-1.6,1.5-3.1,2.5-4.4,4.3
	c-1.7,2.4-6,9.2-8.2,10.8c-1.7,1.2-3.8,0.4-5.7,0c-3.2-0.6-5.9-1-9.1,0c-2.5,0.8-3.2,2.7-4.9,4.3l-3.9,2.9c-0.8,1-1,2.3-1.2,3.5
	c-0.5,2.2-2.1,6.1-1.6,8.2c1,4.5,4.9,8.9,5,13.9c0.1,5.6,1,12.4-5.3,14.9c-0.8,0.3-2,0.7-2.9,0.6c-3.2-0.3-4.7-5.7-5.7-6.6
	c-1.2-1.1-3.5,0-4.1,1.3c-0.4,0.8-0.3,2.3-0.3,3.2c-0.1,1.6-1,5.4-0.6,6.7c0.4,1.5,1.8,2.3,1.9,3.6c0.1,1-0.9,2.4-1.1,4.1l0.4,4.8
	l-1.2,4.8c-0.2,1.4,2,9.3,2.9,10.4c1.7,2,4.7,2.1,6.9,2.9c2.5,0.9,6.9,4.3,8.5,6.4c1.9,2.5,1.2,5.3,3,7.5c1.4,1.6,2.6,0.9,5.3,2.9
	c2.8,2,4.9,4.9,7.3,7.2l3.6,2.7C328.6,493.4,328.2,495,329.1,496.2L329.1,496.2z"/>
<path id="Yunnan" class="st0" d="M710.1,589.6c-0.1-3.6,1.4-8.1,0-11.5c-2,2.7-2.8,4.9-3.3,8.2l-5.3-2.4l-2,5.8L701,602
	c-4.8,0.7-5.2,2.7-8.2-1.9c-1.3,0.5-3.1,1.2-4,2.3c-0.9,1-0.7,2.2-0.8,3.5c0,8.5,1.5,5.9,3.4,13c1.4-0.5,3.8-2.2,5.1-1.5
	c2.3,1.2,3.6,5.3,3.3,7.7c-0.3,2.5-0.7,2.9-0.7,5.8v10.1l-1,6.7v4.3c-0.5,2.4-2.1,2.5-2.8,4c-0.9,1.8,1.1,3.8,0.3,5.4
	c-0.5,1.1-2.7,1.8-3.7,2.6c-1.9,1.4-2,2.8-3.5,4c-1.4,1.1-3.4,1.2-4.5,2.2c-1.4,1.1-1.4,3-2.8,4.1c-1.8,1.5-4,0.3-6.2,2.8
	c-2.5,2.8-1.5,5.3-2.6,8.1c-1.4,3.3-4.6,5.3-4.1,9.6c0.3,2.1,1.9,2.5,2.2,4.8c0.4,3.6-1.8,3.7,0.9,8.6c5-1.4,6.6-4,13-4.3
	c6.4-0.3,4.8,2.3,13,2.4l-4.3,2.4c2.4,5.5,3.9,8.6,4.3,14.9c0.2,2.8-0.8,4.2,0.3,5.4c2.4,2.5,10.3,2.3,13.6,2.3
	c-1.3,4.8-3.4,7.1-4,9.1c-0.7,2.4,0.6,4.4,0,6c-1,2.3-4.4,3.5-5.6,7.9c6.6,3.2,3.5,1.2,7.7,2.1c3.4,0.7,3.2,2.6,9.1,0.8
	c0.6,1.5,1.5,3.2,1.8,4.8c0.3,1.7-0.1,3.4,0.6,4.8c0.8,1.7,4.4,4.6,6.2,4.8c1.2,0.2,2.2-0.3,3.8,0c2,0.3,3,1.5,5.3,0.7
	c3-1,4.2-2.9,6.2-4.3c1.4-1,3.2-1.2,4.8-1.7l1.7,6.2c0,1.7-0.9,3.2,0,4.7c2.6,4,6,2.3,7.8,2.5c0.9,0.1,2.8,1.4,4,1.9l0.5-5.3l2-5.3
	l-4.3-15.8l3.7-6.2c0.9,0.8,1.8,1.8,2.9,2.3c0.9,0.3,2,0.2,2.9,0c4.3-0.5,5.4-1.6,8.6-4.4c1.2-1,3.3-3.5,4.8-3.6c2-0.2,5,3,6.7,4
	c1.8,1.1,4.6,1.4,6.7,1.7l4.8-7.2c1.1,0.8,3.8,3.4,4.8,3.6c1.6,0.4,2.6-1.4,4.2-0.7c1.9,0.8,1.7,3,6.3,3.8c0.2-2.7,1-5,3.8-6
	c2.2-0.8,3.8,1.4,5.8,1.3c1.5,0,2.4-1.3,3.8-1.8l3.2-0.6c1.6-0.8,1.4-3.4,2.9-5.3c2.8-3.5,5.5-5.3,9.8-6.1c1-0.1,2.3-0.4,3.4,0
	c1.2,0.3,2,1.2,2.9,2c1.8-1.3,3.1-2.5,4.4-4.3c0.9-1.3,1.6-2.9,3.3-3.3c1.2-0.2,2.5,0.5,3.7,0c2.1-1.2,4.3-7.3,4-9.2
	c-0.2-1.1-1-2-1.9-2.7c-2.1-1.7-6.4-1.1-9.1-1.1c-2.8,0-10.3-0.9-12.1-3.1c-1.3-1.6-0.4-4.1-2.4-5.2l-8.5-1.9
	c-1.2-0.2-3.1-0.4-3.8-1.6c-0.6-0.8-0.5-2.6-0.5-3.6c0.1-4.9,3.7-7.1,3.8-12.5c0.1-3-0.6-6.2-2.7-8.5c-1.8-2-4.5-1.4-4.3-4.5
	c0.1-3.2,2.6-10,4.1-13c0.9-1.8,2.8-4.3,2.3-6.2c-0.3-1.1-1.4-2.8-2.4-3.4c-1.2-0.8-8.5-2-9.9-1.7c-1.8,0.4-3.1,2-4.8,1.6
	c-4.6-1.1-2.5-5.6-3.2-7.6c-0.6-1.7-2.3-2.7-2.3-4.3c-0.1-3.5,5.6-8,8.8-8.4c1.2-0.1,4.1,0.9,5.8,1.2l1.9-3.4c2.6,1.1,7,4.1,9.6,4.1
	c1.9,0,3.4-1.5,4.8-2.6c1.1-0.9,2.3-1.9,3.3-3c5-5.7,0.7-9.6-2.3-14.9c-2.4,1.7-6.5,5.9-9.6,5.9c-2.7,0-5.1-3.7-5.2-6.1
	c-0.2-1.2,0.4-2.4,0-3.4c-0.3-1.2-1.8-1.9-2.5-3.1c-0.5-1.1-0.1-3.4,0-4.7c-5-1.4-2.9-1.4-8.7-1.4c-0.3,3.8-0.9,7.8-4.4,10.2
	c-1,0.7-3.5,1.4-4.8,1.8c0.2,1.4,0.8,5.1,0.5,6.2c-0.4,1.7-3.1,3.9-4.3,5.3c-2.4,2.6-2.8,4.1-4.1,5.7c-3,3.5-5,0.9-5.1,6.3v4.3
	c0.2,6.3,5.5,10.7,0,16.7c-0.9,0.8-2.2,1.6-3.3,1.8c-3.1,0.7-3.4-2.7-6.7-1.2c-4.3,1.9-4.5,4.3-10.1,5.1c-0.8,0.2-1.9,0.3-2.7,0
	c-3.9-1.7-5.8-8.7-11.7-11.4c0.7-1.1,2.4-3.6,2.3-4.8c-0.2-2.9-6.1-5.6-7.5-8.2l-1.3-6.2c-0.9-2.8-3.4-6.4-4.8-9.1
	c-0.5-1-1.5-3.4-2.1-4c-0.9-0.9-5.9-1-7.7-1.6c-4.1-1.3-6.3-5.4-7.2-9.3l3.4-1.9c-1.3-2.7-2.8-3.5-4.6-5.8c-2.5-3-3.5-5.8-7.4-7.7
	c-2.9,6.7-4.8,8.2-4.8,15.8C712.2,600.1,710.2,595.3,710.1,589.6L710.1,589.6z"/>
<path id="Zhejiang" class="st0" d="M1148,518.5c-1,3.9-1.3,4.4-5.5,4.8l2.3,4.3c0.9,3.2-6.8,5.3-9.1,5.8c0.5,1.6,1.8,5.1,1.6,6.7
	c-0.4,4.2-4.4,10.1-7.3,13l-4.8,4.5c-0.7,1.1-1.6,5.6-1.7,7c-0.4,3.9,2.8,2.5,5.7,6.3c2.5,3.2,3.4,8.9,3.7,12.9c6.7,0,4.1,0,9.6,2.9
	l-0.7,5.8l2.7,4.3l1.3,4.8c1.7,0.3,6.3,1.5,7.7,1.4c3.3-0.3,6.3-4.4,7.7-7.1c1.2,2.1,4.2,9.2,7.2,8.5c1.1-0.3,5.3-4.4,7.6-3.8
	c1.2,0.3,4.4,4.3,5.8,5.4c0.9-2,3.2-5.7,2.8-7.7c-0.1-0.8-0.7-1.8-0.7-2.9c0-1.2,1-3,1.3-4.3l0.7-4.3c0.8-2.7,3-3,3.8-4.9
	c0.7-1.6-0.6-7.4,3.5-7.3c1.1,0,3.3,2.7,4.5,3.6c1-3.6,1.7-3.9,4.8-5.8l-2.9-7.7c-0.2-2,0.9-2.8,1-4.8c0.2-3.7-2-5.8-4.4-8.2h4.8
	l0.5-4.3l1.9,2.9c4.6-2.3,2.2-6.4,0-9.6l-2.7,2.7l-4.5-0.3l3.2-2.2l4.5-7.9c-2.6-0.1-6-0.4-8.2-2.1c-2.2-1.7-4.3-5.1-7.2-5.5
	c-3.8-0.6-5.7,2.2-8.6,3.9c-2,1.2-3.5,1.4-5.8,1.8l1.4-5.8l9.2-10.6c-1.5-0.6-3-1.3-4.3-2.2c-1.1-0.8-2.7-2.5-3.8-3
	c-2.1-0.8-4.8,1.1-5.9,2.8c-0.6,1-0.9,1.7-1.3,2.9l-9.1-2.9c-3.3-1.7-3.3-4.8-7.7-3.7c-0.7,0.2-2.2,0.6-2.7,1
	c-1.5,1.1-1,3.5-1.2,5.1C1148.7,516.1,1148.4,517.2,1148,518.5L1148,518.5z"/>
</svg>
